<?xml version="1.0" encoding="iso-8859-1"?>
<!-- Uploaded to: SVG Repo, www.svgrepo.com, Generator: SVG Repo Mixer Tools -->
<!DOCTYPE svg PUBLIC "-//W3C//DTD SVG 1.1//EN" "http://www.w3.org/Graphics/SVG/1.1/DTD/svg11.dtd">
<svg fill="#000000" height="800px" width="800px" version="1.1" id="Capa_1" xmlns="http://www.w3.org/2000/svg" xmlns:xlink="http://www.w3.org/1999/xlink" 
	 viewBox="0 0 211.727 211.727" xml:space="preserve">
<path d="M94.11,176.688l-18.973-18.973l-7.492-7.492l-7.492-7.492c-2.93-2.927-7.679-2.929-10.606,0l-38.362,38.36
	c-6.713,6.714-6.714,17.64,0.003,24.357l1.234,1.233c3.252,3.253,7.577,5.045,12.178,5.045c4.6,0,8.925-1.791,12.178-5.044
	l33.057-33.057l13.669,13.669c1.465,1.464,3.385,2.196,5.304,2.196s3.839-0.732,5.304-2.196
	C97.039,184.366,97.039,179.617,94.11,176.688z M180.672,100.732l-68.076,68.076c-1.407,1.406-3.315,2.196-5.304,2.196
	c-0.01,0-0.021,0-0.03,0c-2-0.008-3.913-0.814-5.315-2.24l-33.682-34.232c-2.889-2.936-2.87-7.651,0.042-10.563L190.08,2.197
	c1.914-1.914,4.71-2.649,7.323-1.919c2.608,0.729,4.621,2.808,5.265,5.438C203.255,8.111,216.622,64.783,180.672,100.732z
	 M151.178,73.432c-2.93-2.928-7.678-2.928-10.607,0l-46.243,46.243c-2.929,2.93-2.929,7.678,0,10.607
	c1.465,1.464,3.385,2.196,5.304,2.196s3.839-0.732,5.304-2.196l46.243-46.243C154.107,81.11,154.107,76.362,151.178,73.432z"/>
</svg>