<?xml version="1.0" standalone="no"?>
<!DOCTYPE svg PUBLIC "-//W3C//DTD SVG 20010904//EN"
 "http://www.w3.org/TR/2001/REC-SVG-20010904/DTD/svg10.dtd">
<svg version="1.0" xmlns="http://www.w3.org/2000/svg"
 width="600.000000pt" height="670.000000pt" viewBox="0 0 600.000000 670.000000"
 preserveAspectRatio="xMidYMid meet">
<g transform="translate(0.000000,670.000000) scale(0.100000,-0.100000)"
fill="#000000" stroke="none">
<path d="M846 5972 c-39 -119 -139 -426 -222 -682 -84 -255 -151 -466 -150
-468 2 -1 41 -16 87 -32 176 -61 585 -202 599 -206 11 -4 21 16 40 76 13 44
26 80 28 80 2 0 32 -18 68 -39 67 -40 202 -94 285 -113 l47 -11 50 -176 c28
-97 57 -197 64 -223 l12 -48 355 -2 355 -3 83 -194 c46 -107 83 -197 83 -199
0 -3 -190 -3 -423 1 l-423 5 -11 -36 c-14 -52 -105 -345 -148 -482 -20 -63
-67 -209 -103 -325 l-67 -210 -3 -1137 -3 -1138 1856 0 1855 0 0 1138 0 1137
-29 85 c-16 47 -77 238 -136 425 -58 187 -123 391 -142 453 l-37 112 -421 0
-422 0 -83 193 c-45 105 -176 409 -291 675 -114 266 -209 486 -212 488 -2 2
-57 -21 -122 -52 -66 -31 -121 -52 -122 -47 -5 13 -282 505 -343 608 -56 93
-38 87 -280 104 -85 6 -334 25 -554 41 -219 17 -400 30 -401 30 -2 0 10 33 25
73 24 60 26 73 14 80 -11 6 -683 237 -688 237 0 0 -32 -98 -70 -218z m224 138
c50 -16 84 -32 82 -39 -2 -9 3 -9 17 -1 12 6 22 6 25 1 5 -8 129 -50 162 -55
7 -1 19 -8 28 -15 8 -7 21 -9 27 -5 7 4 9 3 6 -3 -4 -6 0 -14 9 -17 8 -3 13
-2 10 3 -8 12 111 -32 126 -47 14 -14 20 -45 7 -36 -5 3 -9 -7 -9 -21 0 -14
-3 -24 -8 -21 -4 2 -8 -13 -8 -35 -1 -30 3 -39 13 -35 8 3 11 1 8 -4 -4 -6 8
-10 27 -10 18 0 87 -5 152 -10 66 -6 158 -12 205 -15 47 -3 93 -7 101 -9 8 -3
74 -7 145 -11 72 -3 166 -10 210 -15 44 -5 132 -12 195 -16 112 -6 156 -16
146 -33 -3 -4 3 -17 12 -27 25 -27 67 -97 64 -106 -1 -5 3 -8 9 -8 8 0 7 -5
-1 -15 -11 -13 -10 -14 5 -8 15 5 17 3 12 -11 -4 -10 -3 -15 3 -11 5 3 19 -17
31 -45 12 -27 25 -48 29 -45 4 2 6 -7 4 -21 -1 -14 0 -23 3 -20 7 7 60 -77
114 -181 20 -39 40 -69 44 -65 5 4 5 -3 2 -16 -3 -12 -2 -20 2 -18 3 3 14 -9
24 -25 9 -17 11 -27 4 -23 -9 6 -9 4 0 -8 7 -8 9 -19 5 -24 -4 -4 1 -2 11 5
14 11 17 11 17 1 0 -8 3 -11 6 -7 3 3 17 2 30 -3 17 -7 22 -6 19 3 -6 15 111
72 140 69 14 -1 16 0 7 7 -11 6 -10 9 3 15 28 10 37 7 31 -11 -4 -10 -4 -14 0
-10 12 11 35 -30 27 -49 -5 -13 -3 -15 7 -9 10 6 12 4 7 -7 -3 -9 0 -21 6 -27
6 -6 7 -11 2 -11 -4 0 -1 -8 7 -17 23 -28 60 -122 52 -135 -4 -7 -3 -8 4 -4
13 8 45 -61 35 -77 -3 -6 -1 -7 5 -3 7 4 12 1 12 -9 0 -8 4 -23 9 -33 5 -9 13
-28 19 -42 36 -87 78 -175 84 -178 5 -2 8 -8 8 -13 0 -6 -4 -8 -9 -5 -5 3 -8
-5 -7 -17 1 -18 6 -23 21 -20 15 4 16 2 7 -5 -11 -7 -11 -10 2 -15 10 -4 13
-13 9 -23 -4 -11 -2 -15 4 -11 6 4 9 -5 8 -22 -1 -21 2 -28 12 -24 7 3 13 1
14 -3 4 -45 7 -57 16 -62 11 -7 28 -52 25 -64 -1 -5 3 -8 8 -8 5 0 9 -3 8 -7
-1 -5 10 -33 24 -63 15 -30 30 -68 33 -83 4 -15 11 -27 15 -27 5 0 12 -15 15
-32 4 -18 12 -38 17 -45 5 -7 6 -18 2 -24 -5 -8 -3 -9 6 -4 10 6 12 4 7 -9 -4
-10 -1 -19 8 -22 8 -4 15 -14 15 -23 0 -10 7 -26 15 -37 20 -26 19 -39 -2 -23
-16 13 -17 12 -4 -3 7 -10 17 -16 21 -13 5 3 11 1 15 -5 4 -6 151 -10 420 -10
l415 0 6 -25 c3 -14 3 -33 0 -42 -4 -10 -4 -14 0 -10 9 9 36 -52 28 -64 -3 -5
0 -9 6 -9 7 0 9 -7 6 -16 -4 -10 -2 -13 6 -8 8 5 9 2 5 -9 -3 -9 -2 -19 2 -22
5 -2 14 -26 21 -52 8 -27 14 -51 15 -55 2 -5 3 -17 4 -29 1 -12 5 -17 13 -13
6 4 8 3 4 -4 -3 -6 -1 -23 5 -39 13 -31 19 -59 20 -86 0 -10 5 -15 11 -11 7 5
9 0 6 -14 -4 -14 -2 -20 5 -15 6 4 8 -2 5 -15 -4 -13 -2 -20 4 -16 5 3 8 0 7
-7 -4 -20 24 -109 34 -109 4 0 6 -4 3 -8 -3 -5 2 -28 10 -52 8 -24 13 -49 10
-57 -3 -7 -1 -13 3 -13 11 0 31 -56 24 -64 -4 -3 -2 -6 4 -6 5 0 16 -26 23
-57 7 -32 19 -67 26 -78 11 -18 14 -211 13 -1144 0 -618 -2 -1128 -5 -1134 -3
-9 -451 -11 -1802 -10 -988 2 -1807 5 -1818 8 l-22 5 2 1117 c1 615 5 1129 8
1143 4 14 18 59 33 100 15 41 29 90 32 107 3 18 9 31 13 28 5 -3 6 3 3 14 -3
10 0 22 6 25 6 4 11 18 11 32 0 13 5 24 10 24 6 0 10 6 9 13 -4 19 12 77 20
77 4 0 8 14 9 31 0 17 6 37 13 45 6 8 13 24 15 37 8 53 41 147 49 140 4 -4 5
-3 1 4 -8 14 3 65 13 59 4 -3 6 7 6 22 -1 15 8 40 19 56 11 16 15 26 8 22 -7
-4 -12 -3 -12 3 0 5 5 13 10 16 6 4 7 11 4 17 -5 7 -2 8 5 4 8 -5 11 -3 10 5
-2 8 3 37 10 64 l14 50 378 2 c290 1 378 -1 372 -10 -5 -9 -3 -9 8 -1 8 6 29
11 47 9 17 -1 30 0 27 3 -3 3 1 12 9 21 12 14 11 23 -10 65 -13 28 -24 55 -24
62 0 7 -14 38 -31 70 -17 34 -29 68 -26 81 2 12 0 20 -4 17 -5 -3 -14 8 -21
23 -7 15 -17 31 -23 36 -6 4 -5 11 5 17 13 8 12 10 -2 10 -21 0 -24 25 -6 34
7 3 3 3 -9 1 -12 -3 -24 -1 -28 4 -4 7 -123 10 -342 10 -185 0 -340 4 -344 8
-9 9 -29 73 -65 203 -8 30 -17 63 -20 74 -4 12 -2 16 5 12 7 -5 9 -1 5 8 -3 9
-10 16 -14 16 -11 0 -27 71 -25 108 1 17 -2 29 -7 26 -5 -4 -7 -12 -4 -20 3
-8 1 -14 -4 -14 -6 0 -10 4 -10 9 0 11 -24 21 -65 28 -16 3 -35 9 -42 15 -7 5
-16 7 -22 4 -5 -3 -12 2 -15 11 -6 15 -8 15 -16 3 -7 -10 -10 -11 -10 -2 0 6
-7 12 -16 12 -11 0 -14 6 -10 18 6 16 5 16 -7 1 -11 -15 -17 -15 -44 -4 -17 7
-41 23 -53 35 -11 11 -25 18 -29 16 -5 -3 -25 8 -46 24 -21 16 -41 27 -46 24
-5 -3 -7 -9 -5 -13 3 -4 -7 -20 -22 -36 -15 -17 -27 -42 -28 -59 -4 -62 -2
-60 -21 -45 -14 12 -15 12 -9 0 5 -8 -2 -6 -20 5 -15 10 -32 19 -38 20 -6 0
-17 2 -24 2 -7 1 -10 6 -7 12 3 5 0 7 -8 4 -8 -3 -18 -1 -22 5 -3 6 -12 11
-18 11 -7 0 -6 -4 3 -10 8 -5 10 -10 5 -10 -6 0 -21 7 -33 16 -12 8 -22 13
-22 10 0 -3 -13 0 -30 5 -16 6 -27 15 -24 20 3 5 -7 9 -23 9 -40 0 -74 11 -67
21 3 5 0 9 -7 9 -8 0 -7 5 2 17 13 15 12 15 -8 2 -16 -9 -19 -16 -10 -21 22
-14 -3 -8 -33 7 -17 9 -30 13 -30 10 0 -3 -11 2 -25 11 -13 8 -29 13 -35 9 -5
-3 -10 -1 -10 5 0 6 -4 9 -9 5 -5 -3 -13 -1 -16 5 -4 6 -16 8 -28 5 -17 -5
-19 -4 -7 4 8 6 11 11 5 11 -27 2 -91 13 -95 17 -2 2 2 8 10 13 8 6 11 10 6
10 -6 0 -5 5 1 11 6 6 9 18 6 27 -4 9 -2 13 4 9 7 -5 14 9 18 35 4 24 16 67
27 98 10 30 20 60 21 67 2 7 6 16 10 19 4 4 7 20 7 36 0 20 4 27 12 22 7 -5 8
-3 4 5 -9 14 13 73 24 66 4 -2 5 6 3 19 -3 13 0 27 6 30 6 4 11 20 11 37 0 16
4 29 9 29 5 0 11 18 15 40 3 22 10 40 14 40 4 0 8 12 9 28 1 15 10 45 19 67
10 22 17 44 16 48 -1 4 3 17 9 28 6 12 12 34 15 51 2 17 7 35 12 42 5 6 15 32
22 59 7 26 17 47 21 47 5 0 9 14 9 30 0 17 4 30 9 30 4 0 6 11 3 25 -2 15 0
25 7 25 6 0 11 12 11 26 0 16 4 23 12 18 6 -4 8 -3 5 3 -10 16 25 126 35 111
5 -8 6 -3 2 14 -12 55 -4 56 146 8z"/>
<path d="M1116 6068 c3 -5 10 -6 15 -3 13 9 11 12 -6 12 -8 0 -12 -4 -9 -9z"/>
<path d="M967 6053 c-8 -10 -19 -30 -22 -45 -4 -16 -11 -28 -17 -28 -5 0 -6
-4 -3 -10 3 -5 -1 -24 -10 -41 -12 -23 -13 -29 -3 -24 10 6 11 5 1 -6 -7 -7
-13 -24 -13 -37 0 -15 -4 -21 -12 -16 -6 4 -8 3 -5 -3 3 -5 -12 -63 -34 -129
-23 -65 -42 -126 -44 -134 -15 -56 -33 -102 -36 -91 -3 8 -5 -3 -5 -24 0 -21
-5 -40 -11 -42 -7 -3 -9 -11 -6 -20 4 -9 2 -14 -3 -11 -5 4 -10 -4 -11 -15 -5
-44 -62 -227 -72 -227 -3 0 -7 -12 -7 -28 -1 -15 -10 -45 -20 -67 -10 -22 -17
-45 -16 -51 1 -7 -3 -25 -9 -40 -7 -16 -12 -32 -11 -36 1 -5 -3 -8 -9 -8 -5 0
-7 -5 -4 -11 4 -6 -1 -17 -11 -25 -18 -14 -17 -14 4 -4 18 9 23 8 28 -5 3 -8
13 -15 21 -15 8 0 12 -4 9 -9 -4 -5 5 -8 19 -7 13 2 22 0 20 -4 -3 -4 7 -7 21
-7 15 0 29 -5 33 -11 7 -12 77 -32 85 -24 3 3 6 0 6 -6 0 -6 7 -9 17 -5 12 5
14 3 8 -7 -6 -10 -4 -12 8 -7 9 3 22 0 29 -6 18 -18 48 -28 48 -17 0 5 7 7 15
4 8 -4 12 -11 8 -17 -3 -6 -1 -7 6 -3 20 13 50 -3 46 -25 -2 -11 0 -17 6 -14
5 4 7 10 4 15 -3 4 2 10 10 14 8 3 17 0 21 -6 5 -7 2 -8 -6 -3 -8 5 -11 4 -7
-2 4 -6 18 -9 32 -8 14 2 25 -1 25 -6 0 -6 9 -1 20 9 23 21 60 110 60 143 0
19 2 20 18 8 15 -12 16 -12 5 1 -9 12 -8 28 7 75 11 33 25 68 31 79 6 11 7 16
0 12 -6 -4 -4 6 4 21 8 15 15 34 15 41 0 7 4 11 8 8 5 -3 8 10 7 29 0 18 3 31
8 28 5 -3 7 1 6 8 -1 8 1 21 4 29 3 8 10 31 15 50 5 19 14 34 20 33 6 -2 9 4
6 11 -3 8 0 25 7 38 7 13 12 30 11 38 -4 23 55 183 62 168 3 -7 3 -3 0 10 -3
13 0 30 8 39 11 14 11 16 -2 8 -13 -8 -13 -6 -1 8 7 9 18 14 25 10 6 -3 6 0
-1 8 -15 15 -17 33 -4 24 6 -3 9 3 8 12 -1 21 28 109 57 173 23 51 28 73 15
64 -5 -3 -9 -1 -9 4 0 13 -89 54 -100 47 -6 -4 -10 -1 -10 5 0 6 -6 10 -12 9
-26 -4 -78 14 -71 24 3 6 1 7 -5 3 -6 -4 -40 5 -75 19 -35 14 -74 25 -88 25
-19 0 -21 2 -9 10 12 8 10 10 -10 10 -14 0 -43 7 -65 15 -53 19 -69 18 -88 -2z
m162 -52 c182 -66 320 -111 337 -111 8 0 14 -2 14 -5 0 -2 -72 -226 -161 -497
-89 -271 -173 -532 -187 -581 -21 -67 -30 -86 -42 -81 -8 3 -118 41 -244 85
-126 44 -231 80 -232 82 -2 1 50 165 114 362 65 198 149 458 187 577 39 120
71 218 73 218 2 0 66 -22 141 -49z"/>
<path d="M1220 5920 c8 -5 20 -10 25 -10 6 0 3 5 -5 10 -8 5 -19 10 -25 10 -5
0 -3 -5 5 -10z"/>
<path d="M869 5081 c-33 -33 -36 -58 -14 -101 18 -35 73 -50 110 -30 25 13 45
49 45 81 0 30 -53 79 -85 79 -16 0 -38 -12 -56 -29z m94 -10 c5 -1 5 -5 2 -11
-3 -5 -2 -10 2 -10 13 0 14 -48 1 -56 -7 -5 -8 -3 -3 6 5 9 4 11 -4 6 -8 -6
-9 -11 -1 -20 8 -10 3 -13 -22 -11 -51 2 -68 14 -66 43 2 39 26 63 57 58 14
-2 30 -5 34 -5z"/>
<path d="M860 4846 c0 -2 7 -7 16 -10 8 -3 12 -2 9 4 -6 10 -25 14 -25 6z"/>
<path d="M1530 5926 c0 -2 7 -7 16 -10 8 -3 12 -2 9 4 -6 10 -25 14 -25 6z"/>
<path d="M1570 5724 c-14 -8 -31 -12 -38 -9 -7 3 -10 0 -7 -5 3 -6 2 -10 -3
-10 -5 0 -17 -12 -27 -26 -9 -15 -11 -23 -4 -19 7 5 10 4 6 -2 -4 -6 -11 -23
-17 -38 -6 -15 -13 -25 -16 -22 -3 3 0 16 6 29 10 19 10 21 0 11 -7 -7 -14
-34 -15 -60 -1 -60 -53 -213 -78 -234 -17 -13 -18 -19 -7 -38 9 -17 9 -21 0
-16 -7 4 -10 2 -8 -6 3 -19 -44 -179 -52 -174 -3 2 -6 -4 -7 -13 -2 -29 -22
-99 -43 -152 -11 -28 -20 -60 -20 -71 0 -13 -5 -18 -12 -14 -7 3 -5 0 6 -7 10
-7 30 -23 45 -34 43 -36 157 -95 167 -87 4 5 3 1 -3 -7 -9 -12 -7 -15 15 -16
15 -1 59 -11 97 -23 46 -14 110 -24 187 -27 120 -6 179 1 296 37 35 10 69 16
75 12 6 -3 7 -1 3 5 -15 25 28 10 87 -30 34 -24 66 -41 71 -40 5 2 6 -4 3 -12
-4 -11 -1 -13 10 -9 12 5 14 3 8 -7 -6 -9 -4 -12 6 -8 17 7 61 -26 51 -37 -4
-5 2 -5 12 -1 19 6 19 6 3 -11 -12 -14 -13 -22 -6 -33 9 -13 10 -12 5 2 -7 24
24 40 45 25 9 -7 17 -16 17 -22 1 -5 14 -11 28 -13 21 -3 24 -6 13 -13 -11 -7
-11 -9 4 -9 9 0 17 -5 17 -11 0 -5 5 -7 10 -4 6 3 10 1 10 -6 0 -7 3 -9 7 -6
3 4 17 -5 30 -19 12 -14 23 -20 23 -14 0 6 5 8 10 5 6 -4 8 -11 5 -16 -3 -5 1
-6 9 -3 9 4 18 -1 22 -10 3 -9 10 -13 15 -10 5 3 9 -2 9 -11 0 -9 4 -14 9 -11
5 3 11 0 14 -8 3 -8 19 -17 36 -21 17 -4 35 -13 39 -22 5 -8 11 -14 13 -13 2
1 11 -1 19 -4 38 -13 119 -23 113 -13 -4 6 2 8 15 5 12 -4 22 -2 22 4 0 6 7 8
15 4 8 -3 15 -2 15 2 0 4 10 18 21 32 11 14 17 19 13 11 -5 -9 -3 -12 4 -7 7
4 12 16 12 27 0 10 5 19 11 19 5 0 7 -6 3 -12 -4 -7 -3 -10 1 -5 11 10 14 48
3 41 -4 -3 -5 2 -2 10 3 9 10 14 14 11 5 -3 7 8 5 25 -2 17 0 28 5 25 5 -3 3
9 -4 27 -7 18 -11 39 -8 47 2 8 0 11 -5 8 -5 -3 -15 4 -23 16 -12 20 -12 21 3
9 10 -9 17 -10 22 -2 3 6 11 7 17 4 7 -4 8 -2 4 5 -6 9 -11 9 -22 0 -13 -10
-18 -6 -15 13 0 4 -6 5 -14 2 -8 -4 -15 -1 -15 6 0 6 -4 9 -9 6 -5 -3 -34 19
-65 49 -31 31 -56 53 -56 49 0 -4 -7 -1 -15 6 -8 7 -12 16 -9 21 3 5 0 9 -6 9
-6 0 -8 5 -4 12 5 7 3 8 -5 3 -13 -8 -51 26 -51 46 0 6 -7 8 -16 5 -8 -3 -13
-2 -11 2 5 9 -30 42 -37 34 -3 -3 -6 0 -6 6 0 7 -7 12 -15 12 -8 0 -15 6 -15
14 0 14 -28 31 -45 27 -5 -1 -1 8 10 21 15 17 16 19 3 9 -13 -10 -18 -10 -18
-2 0 7 -5 9 -10 6 -13 -8 -42 14 -35 25 3 5 0 12 -6 16 -8 5 -9 3 -4 -6 5 -7
-15 9 -43 35 -51 48 -63 63 -40 49 7 -5 8 -3 4 5 -5 7 -13 10 -20 8 -8 -3 -10
15 -6 67 5 66 7 71 28 72 30 2 38 -18 24 -62 -5 -19 -6 -32 -2 -29 5 3 11 1
15 -5 3 -5 1 -10 -5 -10 -6 0 3 -16 21 -35 18 -18 37 -31 43 -28 6 4 5 -1 -3
-10 -12 -15 -12 -17 2 -12 19 8 60 -34 52 -54 -4 -11 -3 -12 10 -1 12 10 15 9
16 -6 0 -11 3 -14 5 -7 3 7 35 -17 77 -60 39 -40 67 -65 62 -57 -5 9 -1 8 13
-4 20 -18 23 -18 58 -1 19 9 38 14 41 11 3 -3 14 5 25 17 11 12 17 15 13 7 -4
-10 -2 -9 8 3 8 9 21 17 30 17 27 0 67 22 60 33 -4 6 0 8 11 4 10 -4 15 -3 11
4 -4 5 -1 16 5 24 10 11 10 15 1 15 -7 0 -9 5 -6 10 3 6 1 10 -4 10 -6 0 -10
3 -10 8 4 21 -2 43 -10 38 -5 -3 -18 16 -29 42 -11 26 -24 46 -29 44 -4 -2 -9
2 -12 9 -2 8 1 9 10 4 8 -5 3 4 -10 18 -14 15 -20 27 -15 27 5 0 1 5 -8 11
-10 5 -18 17 -18 26 0 8 -15 37 -34 63 -27 37 -32 51 -23 60 9 10 9 11 -2 5
-11 -6 -13 -4 -8 8 4 10 2 16 -6 14 -7 -1 -11 6 -11 15 1 10 -2 15 -7 13 -12
-8 -51 73 -43 87 4 7 3 8 -5 4 -13 -8 -45 59 -36 74 3 6 -1 7 -10 4 -11 -5
-18 0 -22 15 -3 11 -12 21 -20 21 -8 0 -12 4 -9 9 3 4 -3 16 -14 26 -17 16
-20 16 -26 2 -3 -9 -11 -14 -17 -12 -7 2 -59 7 -117 11 -58 3 -123 7 -145 9
-22 1 -139 11 -260 20 -121 9 -243 17 -272 18 -29 1 -47 4 -42 8 6 3 -2 6 -18
7 -160 2 -194 5 -189 18 3 8 4 14 3 13 -1 -1 -13 -7 -27 -15z m235 -53 c132
-11 380 -29 550 -41 171 -12 315 -24 321 -25 7 -2 47 -66 89 -142 43 -76 123
-216 177 -311 54 -95 99 -178 101 -183 1 -6 -46 -33 -104 -61 l-107 -50 -146
128 -146 129 0 72 0 73 -60 0 -60 0 0 -94 0 -94 152 -134 c83 -73 179 -158
212 -188 34 -30 91 -81 128 -113 98 -85 117 -139 79 -223 -38 -84 -137 -117
-222 -74 -24 13 -123 76 -219 140 -96 64 -228 152 -293 194 l-117 77 -63 -20
c-211 -71 -412 -68 -604 9 -101 41 -215 110 -208 128 8 22 246 754 257 790 5
20 15 32 26 32 9 0 125 -9 257 -19z m-422 -346 c-3 -9 -8 -14 -10 -11 -3 3 -2
9 2 15 9 16 15 13 8 -4z"/>
<path d="M2646 4812 c-3 -5 1 -15 8 -21 11 -10 14 -9 12 3 -3 21 -13 29 -20
18z"/>
<path d="M2408 5693 c7 -3 16 -2 19 1 4 3 -2 6 -13 5 -11 0 -14 -3 -6 -6z"/>
<path d="M2707 5649 c7 -7 15 -10 18 -7 3 3 -2 9 -12 12 -14 6 -15 5 -6 -5z"/>
<path d="M766 5613 c-6 -14 -5 -15 5 -6 7 7 10 15 7 18 -3 3 -9 -2 -12 -12z"/>
<path d="M2780 5573 c13 -18 25 -33 27 -33 8 0 -17 38 -33 51 -11 9 -9 2 6
-18z"/>
<path d="M2770 5551 c0 -6 4 -13 10 -16 6 -3 7 1 4 9 -7 18 -14 21 -14 7z"/>
<path d="M656 5183 c-6 -14 -5 -15 5 -6 7 7 10 15 7 18 -3 3 -9 -2 -12 -12z"/>
<path d="M2580 5010 c-9 -6 -10 -10 -3 -10 6 0 15 5 18 10 8 12 4 12 -15 0z"/>
<path d="M3070 5016 c0 -2 8 -10 18 -17 15 -13 16 -12 3 4 -13 16 -21 21 -21
13z"/>
<path d="M3341 4993 c-6 -10 -11 -13 -11 -8 0 6 -12 10 -27 9 -16 0 -28 -5
-27 -10 1 -5 -6 -14 -15 -21 -12 -9 -18 -9 -23 0 -6 9 -8 9 -8 0 0 -13 -70
-57 -78 -49 -3 3 -11 -2 -18 -12 -12 -15 -15 -15 -24 -2 -9 13 -14 8 -11 -12
0 -4 -7 -4 -16 -1 -11 4 -14 3 -9 -5 4 -7 1 -12 -6 -12 -8 0 -31 -9 -53 -20
-22 -11 -43 -20 -48 -20 -15 0 -57 -46 -61 -67 -3 -14 3 -24 20 -32 14 -6 22
-16 19 -21 -4 -6 1 -7 11 -3 13 5 16 2 12 -9 -4 -8 -2 -21 4 -29 8 -11 9 -10
4 5 -5 14 -2 17 10 12 8 -3 18 -6 21 -6 4 0 -2 -10 -13 -22 -10 -13 -12 -17
-4 -11 19 14 46 1 35 -17 -5 -8 -4 -11 3 -6 13 8 44 -33 35 -47 -3 -6 -1 -7 5
-3 14 9 14 10 17 -86 1 -50 -2 -75 -8 -71 -6 4 -8 -2 -5 -15 4 -12 2 -20 -3
-16 -5 3 -9 -3 -9 -14 0 -10 -9 -28 -19 -39 -11 -12 -17 -23 -14 -27 3 -3 -4
-3 -16 -1 -12 2 -19 0 -16 -5 7 -11 -34 -40 -57 -40 -9 0 -23 -6 -30 -13 -8
-9 -32 -12 -68 -11 -70 4 -80 6 -80 14 0 4 -14 10 -31 14 -17 3 -28 10 -24 16
3 5 0 7 -7 5 -8 -3 -25 5 -38 17 -14 13 -26 22 -27 21 -8 -8 -23 -2 -18 7 3 5
-6 12 -20 16 -14 3 -25 10 -25 15 0 5 -11 14 -25 21 -13 6 -22 15 -18 21 3 6
1 7 -5 4 -17 -11 -41 3 -37 23 3 14 -1 16 -18 12 -20 -5 -20 -6 -2 -12 19 -7
19 -7 -2 -18 -15 -9 -20 -18 -15 -34 3 -13 9 -25 13 -28 5 -4 10 -22 11 -42 2
-20 6 -34 11 -31 4 2 7 -5 7 -17 0 -12 4 -19 9 -16 5 3 12 -1 15 -10 3 -8 2
-13 -2 -10 -5 3 -9 -1 -9 -9 0 -8 5 -11 10 -8 6 4 8 0 4 -10 -3 -9 0 -18 9
-21 8 -3 14 -10 14 -16 0 -6 -5 -8 -12 -4 -7 4 -8 3 -4 -5 4 -6 11 -9 16 -6
11 7 23 -32 14 -46 -4 -8 -3 -9 4 -5 8 5 12 0 12 -12 0 -11 7 -25 15 -32 8 -7
15 -19 15 -26 0 -13 3 -21 31 -76 6 -11 12 -32 14 -46 1 -13 8 -28 15 -32 7
-4 10 -12 7 -18 -4 -5 2 -17 13 -27 25 -22 27 -43 3 -24 -17 13 -17 13 -3 -6
8 -11 17 -22 21 -25 9 -9 42 -84 42 -97 0 -7 4 -13 8 -13 4 0 5 -10 2 -22 -4
-19 -3 -20 6 -8 9 13 11 12 11 -5 0 -12 6 -27 13 -34 10 -11 9 -12 -1 -6 -11
6 -11 3 0 -14 7 -12 15 -21 18 -21 3 0 7 -10 7 -22 1 -13 7 -24 13 -26 5 -2 8
-8 4 -13 -3 -5 2 -16 10 -25 18 -18 21 -39 4 -28 -7 4 -8 3 -4 -5 4 -6 11 -9
15 -6 5 2 14 -15 21 -38 16 -53 51 -130 63 -138 5 -4 6 -12 2 -19 -5 -9 -4
-11 3 -6 7 4 17 4 24 0 14 -9 388 -5 402 3 5 4 6 1 2 -6 -10 -15 46 -3 56 13
4 6 8 8 8 4 0 -4 15 1 33 12 17 11 40 20 50 20 11 0 15 4 11 11 -5 8 1 10 19
5 14 -3 29 -2 32 4 3 6 -1 7 -12 4 -17 -5 -17 -5 0 6 9 6 21 9 26 6 5 -3 11 0
14 8 6 15 95 49 108 40 4 -2 16 7 25 21 9 13 20 23 24 20 4 -3 24 6 44 20 20
13 43 22 51 19 8 -4 15 -2 15 2 0 5 25 20 55 34 40 18 55 31 55 45 0 15 3 17
9 7 7 -11 9 -10 14 3 4 9 3 13 -3 10 -6 -3 -10 -1 -10 5 0 6 -4 9 -9 6 -5 -3
-12 1 -15 10 -3 8 -2 13 2 10 5 -3 9 1 9 9 0 8 -5 11 -10 8 -10 -6 -27 14 -27
32 0 6 5 3 10 -5 5 -8 10 -10 10 -4 0 6 -9 22 -19 36 -11 13 -23 37 -26 51 -4
15 -11 27 -17 27 -5 0 -7 4 -3 9 3 5 1 12 -4 15 -5 3 -17 31 -26 61 -10 30
-22 55 -27 55 -5 0 -7 4 -4 8 2 4 -15 47 -38 95 -25 50 -39 91 -34 97 4 5 5 8
2 5 -8 -6 -33 25 -34 42 0 6 -5 24 -12 40 -6 15 -12 30 -12 33 -1 3 -5 11 -9
18 -5 6 -5 17 -1 24 4 7 3 8 -4 4 -7 -4 -12 -1 -12 8 0 9 -4 16 -8 16 -5 0 -9
7 -10 15 -1 8 -3 22 -4 30 -1 8 -5 15 -10 15 -4 0 -8 6 -8 14 0 13 -85 202
-116 259 -8 15 -12 27 -8 27 3 0 2 6 -3 13 -18 22 -23 60 -10 76 11 14 10 14
-5 2 -16 -12 -18 -11 -18 8 0 12 -4 20 -8 17 -4 -2 -9 4 -10 15 -4 42 -6 48
-16 46 -6 -1 -11 5 -11 13 0 8 -6 21 -12 28 -7 7 -13 22 -13 33 0 10 -6 19
-12 19 -9 0 -8 4 2 10 8 5 10 10 4 10 -5 0 -16 16 -24 35 -8 19 -17 35 -21 35
-4 0 -6 9 -4 20 5 25 -1 26 -14 3z m56 -170 c34 -82 173 -404 308 -718 136
-313 249 -575 252 -582 3 -7 -11 -19 -34 -28 -21 -8 -144 -66 -273 -127 l-235
-113 -230 -2 -230 -3 -167 392 c-224 525 -318 751 -315 754 1 1 43 -28 92 -64
50 -35 118 -78 153 -95 57 -27 71 -29 140 -25 92 5 157 38 203 101 60 82 74
208 34 288 -10 19 -52 66 -94 106 l-76 72 115 53 c63 29 153 72 200 95 47 23
87 42 90 42 3 1 33 -65 67 -146z"/>
<path d="M3009 4753 c-13 -16 -12 -17 4 -4 16 13 21 21 13 21 -2 0 -10 -8 -17
-17z"/>
<path d="M2846 3647 c3 -10 9 -15 12 -12 3 3 0 11 -7 18 -10 9 -11 8 -5 -6z"/>
<path d="M3084 4948 c10 -6 22 -6 26 -2 5 5 -3 10 -18 11 -22 1 -24 0 -8 -9z"/>
<path d="M3186 4948 c3 -5 10 -6 15 -3 13 9 11 12 -6 12 -8 0 -12 -4 -9 -9z"/>
<path d="M3033 4885 c0 -8 4 -12 9 -9 5 3 6 10 3 15 -9 13 -12 11 -12 -6z"/>
<path d="M2726 4871 c8 -8 43 -8 38 0 -2 4 -13 7 -24 6 -10 -1 -17 -3 -14 -6z"/>
<path d="M1204 4798 c0 -10 1 -18 3 -18 1 0 7 8 12 18 7 13 6 19 -2 19 -7 0
-13 -9 -13 -19z"/>
<path d="M1267 4801 c12 -10 19 -22 15 -26 -4 -5 -1 -5 6 -1 11 6 9 12 -7 27
-11 10 -24 19 -28 19 -4 -1 2 -9 14 -19z"/>
<path d="M2840 4776 c0 -3 9 -10 20 -16 11 -6 20 -8 20 -6 0 3 -9 10 -20 16
-11 6 -20 8 -20 6z"/>
<path d="M1280 4746 c0 -2 7 -7 16 -10 8 -3 12 -2 9 4 -6 10 -25 14 -25 6z"/>
<path d="M2835 4740 c3 -5 8 -10 11 -10 2 0 4 5 4 10 0 6 -5 10 -11 10 -5 0
-7 -4 -4 -10z"/>
<path d="M878 4733 c7 -3 16 -2 19 1 4 3 -2 6 -13 5 -11 0 -14 -3 -6 -6z"/>
<path d="M1393 4695 c0 -8 4 -12 9 -9 5 3 6 10 3 15 -9 13 -12 11 -12 -6z"/>
<path d="M2890 4696 c0 -2 8 -10 18 -17 15 -13 16 -12 3 4 -13 16 -21 21 -21
13z"/>
<path d="M2107 4646 c4 -5 -1 -7 -9 -4 -8 4 -21 -2 -28 -12 -8 -11 -17 -17
-22 -14 -12 8 -10 -10 4 -24 7 -7 8 -12 4 -12 -5 0 -3 -7 4 -15 7 -8 10 -15 7
-15 -3 0 3 -25 13 -56 11 -31 17 -61 14 -66 -3 -5 0 -16 7 -24 7 -9 14 -23 15
-32 8 -48 22 -100 35 -127 l14 -30 115 -3 c62 -1 121 0 129 4 9 4 20 6 24 5 5
-1 6 3 3 8 -4 5 2 17 11 27 17 17 17 18 -1 11 -15 -6 -17 -4 -13 14 3 11 3 18
0 15 -11 -10 -44 76 -38 98 5 16 4 18 -4 7 -8 -12 -11 -9 -17 15 -4 16 -10 31
-13 34 -14 12 -30 50 -21 50 5 0 -1 10 -13 23 -12 13 -24 22 -26 20 -2 -1 -10
5 -18 15 -10 11 -12 12 -8 2 4 -8 -5 -2 -19 14 -14 17 -23 33 -21 36 2 3 -9 5
-26 4 -16 -1 -29 2 -29 7 0 5 -12 12 -26 15 -19 5 -22 9 -12 15 9 6 4 8 -14 7
-15 -1 -24 -7 -21 -12z m135 -96 l67 -45 54 -133 55 -133 -121 3 -120 3 -52
182 -51 183 25 9 c28 9 24 11 143 -69z"/>
<path d="M1731 4587 c-4 -61 -1 -101 9 -107 8 -5 19 -54 23 -102 1 -9 5 -14
10 -11 5 3 6 -4 2 -17 -5 -17 -4 -21 6 -15 9 6 11 2 7 -13 -4 -12 -2 -25 4
-28 5 -3 7 -15 5 -26 -3 -11 -3 -17 0 -14 3 3 14 -6 25 -19 18 -24 25 -25 124
-25 90 0 107 3 124 20 16 16 18 24 9 47 -5 14 -7 33 -5 40 4 9 1 11 -6 7 -8
-5 -9 2 -5 24 4 20 1 34 -8 42 -8 7 -15 21 -15 32 0 10 -9 46 -21 80 -11 33
-18 67 -15 75 4 9 -1 17 -14 20 -11 3 -18 8 -15 12 2 4 -6 6 -18 5 -12 -1 -22
-3 -22 -4 0 -4 -52 -9 -93 -11 -24 0 -57 -5 -73 -9 -25 -7 -30 -6 -25 5 3 8 2
17 -3 19 -4 3 -8 -9 -10 -27z m242 -24 c20 -68 87 -313 87 -318 0 -3 -50 -4
-111 -3 l-112 3 -43 150 c-23 83 -43 155 -43 162 -1 8 25 13 82 16 45 1 94 4
108 5 18 1 28 -4 32 -15z"/>
<path d="M1694 4548 l-19 -23 23 19 c21 18 27 26 19 26 -2 0 -12 -10 -23 -22z"/>
<path d="M3056 4548 c3 -5 10 -6 15 -3 13 9 11 12 -6 12 -8 0 -12 -4 -9 -9z"/>
<path d="M3614 4476 c3 -16 8 -31 11 -35 3 -3 4 7 1 23 -3 16 -8 31 -11 35 -3
3 -4 -7 -1 -23z"/>
<path d="M2416 4397 c3 -10 9 -15 12 -12 3 3 0 11 -7 18 -10 9 -11 8 -5 -6z"/>
<path d="M2590 4370 c-9 -6 -10 -10 -3 -10 6 0 15 5 18 10 8 12 4 12 -15 0z"/>
<path d="M3646 4367 c3 -10 9 -15 12 -12 3 3 0 11 -7 18 -10 9 -11 8 -5 -6z"/>
<path d="M2709 4313 c-13 -16 -12 -17 4 -4 16 13 21 21 13 21 -2 0 -10 -8 -17
-17z"/>
<path d="M2666 3767 c3 -10 9 -15 12 -12 3 3 0 11 -7 18 -10 9 -11 8 -5 -6z"/>
<path d="M4075 3672 c-84 -5 -89 -20 -37 -133 l29 -66 -45 -23 c-25 -13 -51
-25 -59 -26 -8 -1 -25 -9 -38 -18 -13 -9 -31 -16 -40 -16 -10 0 -13 -5 -9 -12
4 -7 3 -8 -4 -4 -6 4 -36 -7 -67 -24 -30 -17 -55 -26 -55 -20 0 7 -5 6 -14 -2
-8 -7 -12 -16 -9 -21 2 -4 1 -6 -4 -5 -15 4 -73 -27 -73 -39 0 -9 7 -10 28 -2
24 9 411 189 421 196 2 2 -13 42 -35 90 -21 47 -40 90 -42 95 -2 4 159 8 357
8 199 0 361 -2 361 -4 0 -11 262 -842 276 -874 7 -19 14 -36 14 -38 0 -2 -774
-4 -1720 -4 -946 0 -1720 3 -1720 7 0 5 13 48 29 98 35 106 191 608 222 713
l21 72 410 -2 411 -3 78 -184 c44 -102 79 -185 79 -185 0 -1 -121 1 -270 2
l-270 4 0 -61 0 -61 1005 0 1005 0 0 60 0 60 -313 0 c-260 0 -316 -2 -333 -15
-24 -18 -53 -17 318 -16 l298 1 -2 -26 c-2 -14 -11 -30 -21 -36 -11 -5 -17 -6
-14 -1 3 4 -426 7 -954 6 l-959 -2 0 29 0 30 235 -1 c137 0 235 -4 235 -10 0
-5 5 -9 11 -9 5 0 7 5 3 11 -4 8 1 9 17 4 13 -4 21 -4 17 0 -3 4 1 15 9 25 9
10 17 31 19 45 3 25 2 26 -10 9 -13 -17 -14 -17 -20 4 -4 12 -4 27 0 33 4 7 3
9 -4 6 -10 -7 -77 151 -68 161 3 2 -4 12 -15 21 -10 9 -20 28 -21 43 -1 15 -5
25 -9 22 -4 -2 -12 10 -19 26 -7 16 -19 35 -28 42 -13 11 -14 11 -7 -2 5 -11
5 -12 -3 -5 -7 6 -143 8 -386 5 -207 -3 -376 -3 -376 0 0 3 -13 6 -29 5 -16 0
-27 -3 -24 -7 2 -5 -1 -8 -7 -8 -6 0 -8 -4 -5 -10 3 -5 2 -10 -2 -10 -5 0 -15
-21 -22 -47 -7 -27 -20 -67 -27 -91 -8 -23 -14 -49 -14 -56 0 -8 -7 -19 -16
-27 -8 -7 -13 -21 -11 -31 3 -10 1 -18 -4 -18 -5 0 -8 -3 -7 -7 4 -19 -15 -82
-23 -77 -5 3 -6 -1 -3 -9 7 -19 -14 -99 -25 -93 -4 3 -8 -9 -8 -25 0 -17 -4
-34 -9 -37 -5 -4 -11 -18 -12 -32 -2 -14 -14 -56 -27 -95 -13 -38 -31 -97 -40
-130 -9 -33 -24 -69 -33 -79 -11 -13 -12 -17 -3 -11 10 5 12 4 7 -4 -4 -6 0
-18 9 -27 14 -15 170 -16 1715 -16 934 0 1704 4 1711 8 8 4 9 3 5 -4 -12 -20
10 -13 29 8 17 19 17 22 0 65 -9 25 -14 52 -11 61 3 8 2 12 -4 9 -6 -3 -10 2
-10 12 0 10 -7 31 -15 46 -8 15 -9 25 -4 21 6 -3 4 8 -5 24 -9 17 -16 38 -16
47 0 8 -4 23 -9 33 -17 32 -41 97 -45 122 -2 14 -12 45 -20 69 -9 24 -17 59
-19 77 -1 17 -5 30 -9 28 -3 -2 -12 20 -18 49 -7 28 -16 57 -21 63 -5 6 -6 13
-4 16 3 3 0 18 -6 34 -13 32 -18 50 -21 77 -1 9 -6 17 -10 17 -4 0 -8 9 -8 20
0 12 -11 32 -25 46 l-26 26 -302 -4 c-166 -1 -324 -4 -352 -6z"/>
<path d="M3945 3460 c-3 -5 -1 -10 4 -10 6 0 11 5 11 10 0 6 -2 10 -4 10 -3 0
-8 -4 -11 -10z"/>
<path d="M3625 3240 c3 -5 8 -10 11 -10 2 0 4 5 4 10 0 6 -5 10 -11 10 -5 0
-7 -4 -4 -10z"/>
<path d="M1651 3144 c0 -11 3 -14 6 -6 3 7 2 16 -1 19 -3 4 -6 -2 -5 -13z"/>
<path d="M3285 2650 c-946 -3 -1725 -8 -1732 -13 -10 -7 -31 -170 -24 -192 2
-5 4 -16 4 -22 0 -7 8 -20 18 -29 15 -14 188 -15 1756 -14 956 1 1743 2 1750
2 7 1 10 5 7 9 -2 4 -1 10 3 12 5 3 7 53 7 111 -2 82 -5 109 -18 121 -9 9 -16
14 -16 10 0 -3 -8 -2 -17 2 -10 4 -792 6 -1738 3z m1765 -137 l0 -108 -1742 2
-1743 3 -3 105 -3 105 1746 0 1745 0 0 -107z"/>
<path d="M5080 2441 c0 -6 4 -13 10 -16 6 -3 7 1 4 9 -7 18 -14 21 -14 7z"/>
<path d="M1599 2320 c-25 -3 -54 -13 -63 -23 -10 -9 -13 -17 -8 -17 15 0 12
-1752 -2 -1763 -7 -6 -4 -7 6 -3 10 3 20 1 23 -4 3 -4 0 -10 -7 -12 -7 -3 -2
-7 10 -10 12 -4 20 -3 18 1 -5 8 654 5 739 -3 29 -3 40 -2 25 3 -13 4 65 5
175 2 110 -3 241 -4 290 -3 100 1 1412 2 1930 1 283 0 330 2 327 14 -1 8 5 17
13 21 9 3 14 10 11 15 -10 15 -13 872 -4 877 4 3 8 11 8 17 0 9 -2 9 -8 0 -4
-6 -7 165 -7 380 0 216 4 398 8 405 5 7 4 12 -2 12 -6 0 -11 15 -11 34 0 18
-7 39 -15 46 -13 11 -349 13 -1713 14 -933 1 -1718 -1 -1743 -4z m3451 -910
l0 -890 -1745 0 -1745 0 0 890 0 890 1745 0 1745 0 0 -890z m-2187 -917 c-13
-2 -33 -2 -45 0 -13 2 -3 4 22 4 25 0 35 -2 23 -4z"/>
<path d="M2906 1834 c-33 -10 -65 -32 -102 -68 -76 -77 -84 -111 -84 -360 0
-190 2 -204 24 -251 31 -66 69 -111 120 -138 35 -19 57 -22 146 -22 97 0 109
2 152 27 61 37 102 87 124 156 15 47 19 91 19 252 0 189 -1 197 -26 250 -30
64 -75 112 -132 141 -54 28 -174 35 -241 13z m232 -39 c23 -9 42 -23 42 -30 0
-8 5 -17 12 -21 7 -5 8 -3 3 6 -6 9 -4 11 4 6 7 -5 10 -14 7 -22 -3 -9 0 -11
11 -7 12 5 15 2 10 -10 -4 -12 -2 -14 10 -10 11 4 14 3 9 -6 -4 -6 -1 -22 8
-35 20 -32 33 -359 16 -431 -6 -27 -13 -58 -15 -69 -3 -10 -12 -30 -22 -45
-10 -14 -16 -30 -15 -34 1 -5 -2 -6 -8 -2 -5 3 -10 1 -10 -5 0 -6 -4 -8 -10
-5 -5 3 -10 1 -10 -4 0 -6 -7 -11 -16 -11 -9 0 -12 -5 -8 -12 5 -8 2 -9 -9 -5
-10 3 -17 2 -17 -3 0 -23 -146 -30 -220 -10 -30 8 -59 26 -88 56 -24 24 -40
44 -37 44 4 0 -3 14 -15 30 -15 21 -20 39 -16 55 4 14 3 25 -2 25 -9 0 -6 315
3 330 4 6 2 10 -3 10 -5 0 -5 17 1 40 6 22 15 40 20 40 4 0 5 4 2 10 -7 11 10
45 36 74 11 11 19 24 19 29 0 6 10 2 22 -9 22 -19 22 -19 8 0 -14 18 -13 19 3
13 11 -4 16 -3 12 3 -4 6 9 17 27 25 43 20 177 14 236 -10z"/>
<path d="M2929 1711 c-20 -11 -41 -17 -45 -13 -5 4 -2 -2 6 -12 11 -14 11 -18
2 -12 -9 5 -15 1 -19 -13 -3 -11 -10 -18 -15 -15 -6 4 -8 -3 -4 -17 3 -13 3
-18 0 -11 -16 35 -21 -6 -22 -199 0 -180 2 -210 14 -205 12 4 12 2 4 -14 -6
-11 -7 -19 -3 -18 10 4 64 -38 58 -44 -2 -2 5 -10 17 -17 11 -7 17 -8 14 -2
-4 5 6 3 21 -4 31 -15 99 -13 131 4 11 6 31 24 45 40 14 17 27 28 30 25 3 -3
5 1 4 8 -1 39 3 50 16 40 10 -8 13 -6 13 8 0 10 -4 16 -8 14 -4 -3 -8 0 -8 5
0 6 3 11 8 11 4 0 7 54 7 119 0 65 -4 117 -9 114 -5 -3 -6 12 -4 33 3 24 -1
51 -10 69 -14 29 -14 29 3 15 17 -14 17 -13 7 5 -5 11 -24 33 -41 49 -17 16
-28 32 -26 36 2 4 -2 7 -10 7 -8 0 -11 -5 -8 -11 4 -6 -2 -4 -13 5 -28 24
-111 24 -155 0z m173 -41 c50 -41 58 -76 58 -259 0 -134 -3 -160 -20 -196 -37
-77 -134 -108 -200 -62 -71 47 -75 60 -78 247 -3 151 -2 173 16 214 26 59 70
86 137 86 41 0 57 -5 87 -30z"/>
<path d="M3180 1201 c0 -6 4 -13 10 -16 6 -3 7 1 4 9 -7 18 -14 21 -14 7z"/>
<path d="M2760 1191 c0 -10 29 -36 34 -30 1 2 -6 12 -16 22 -10 9 -18 13 -18
8z"/>
<path d="M3216 1157 c3 -10 9 -15 12 -12 3 3 0 11 -7 18 -10 9 -11 8 -5 -6z"/>
<path d="M2857 1059 c7 -7 15 -10 18 -7 3 3 -2 9 -12 12 -14 6 -15 5 -6 -5z"/>
<path d="M1950 1764 l0 -72 31 2 c30 1 33 -2 50 -54 10 -30 58 -181 108 -335
50 -154 91 -286 91 -292 0 -9 20 -13 68 -13 l68 0 28 88 c15 48 66 206 114
350 l86 264 28 -4 28 -5 0 74 0 73 -137 -2 c-76 -2 -137 -6 -135 -10 1 -5 2
-37 2 -72 0 -62 0 -63 25 -58 30 5 32 -7 10 -69 -9 -24 -32 -100 -51 -169 -38
-139 -50 -170 -62 -170 -5 0 -25 55 -46 123 -20 67 -48 154 -62 192 -30 88
-30 92 4 87 l27 -4 -2 72 -1 71 -136 2 -136 2 0 -71z m245 15 c4 -19 1 -36
-10 -51 -12 -15 -15 -17 -12 -5 10 27 -1 20 -18 -13 -14 -27 -13 -33 4 -78 11
-28 17 -52 14 -55 -3 -3 2 -16 11 -28 9 -14 13 -32 9 -47 -4 -17 -2 -23 6 -18
7 4 11 0 11 -11 0 -10 9 -44 20 -75 10 -32 17 -67 15 -78 -2 -11 1 -19 8 -17
7 1 11 -3 10 -9 -1 -6 9 -16 22 -22 18 -8 26 -8 35 3 7 8 16 13 19 10 4 -2 8
1 9 8 1 7 5 31 8 54 4 27 10 40 17 36 6 -4 8 0 4 10 -3 9 -1 17 5 19 6 2 12
23 14 46 5 54 54 203 65 197 4 -3 11 -1 14 5 4 6 1 9 -6 8 -6 -2 -16 11 -21
29 -4 18 -13 35 -20 39 -7 4 -8 3 -4 -4 4 -7 2 -12 -3 -12 -6 0 -11 20 -11 45
l0 45 100 0 c91 0 100 -2 110 -21 17 -31 4 -72 -20 -66 -11 3 -18 0 -17 -7 1
-6 -3 -10 -9 -9 -7 1 -14 -12 -18 -29 -3 -18 -14 -41 -24 -52 -9 -10 -11 -16
-4 -12 15 9 15 5 0 -31 -7 -15 -12 -32 -13 -38 -3 -27 -17 -55 -26 -50 -5 3
-6 -1 -3 -10 4 -8 1 -22 -6 -30 -7 -8 -10 -21 -7 -29 3 -8 0 -19 -7 -25 -7 -6
-13 -24 -14 -40 0 -16 -8 -41 -18 -56 -9 -14 -14 -28 -11 -32 4 -3 0 -15 -8
-27 -8 -11 -15 -32 -15 -45 0 -14 -9 -43 -19 -65 -10 -23 -24 -57 -30 -76 -11
-34 -13 -35 -51 -32 -36 4 -42 9 -56 40 -8 20 -15 46 -16 59 -2 13 -5 23 -9
23 -4 0 -10 7 -13 16 -4 9 -2 13 6 8 6 -4 4 6 -5 22 -16 31 -65 167 -70 199
-2 11 -6 27 -10 35 -35 97 -56 160 -52 160 3 0 -2 17 -10 37 -9 21 -14 47 -11
59 7 27 -28 63 -40 42 -4 -7 -4 -10 1 -6 9 9 35 -9 35 -24 0 -5 -13 0 -29 11
-16 12 -33 21 -38 21 -5 0 -7 18 -5 40 l4 41 104 -2 103 -1 6 -29z"/>
<path d="M2483 1568 c1 -15 6 -23 11 -18 4 4 4 16 -2 26 -9 16 -10 14 -9 -8z"/>
<path d="M2176 1515 c-9 -26 -7 -32 5 -12 6 10 9 21 6 23 -2 3 -7 -2 -11 -11z"/>
<path d="M2431 1344 c0 -11 3 -14 6 -6 3 7 2 16 -1 19 -3 4 -6 -2 -5 -13z"/>
<path d="M3390 1734 l0 -104 55 0 c53 0 55 1 70 36 14 33 17 35 57 32 l43 -3
3 -272 2 -273 -25 -1 c-14 -1 -30 -2 -36 -3 -8 -1 -12 -27 -13 -74 l-1 -72
143 0 142 0 0 73 0 72 -32 0 -33 0 0 275 0 275 37 3 c35 3 39 0 55 -32 16 -35
18 -36 72 -36 l56 0 -3 102 -3 103 -295 1 -294 1 0 -103z m562 51 c3 -12 3
-48 0 -79 -4 -50 -7 -55 -26 -52 -11 2 -20 9 -19 15 2 6 -4 8 -15 4 -15 -6
-15 -5 -3 10 8 10 11 20 7 24 -3 3 -6 1 -6 -5 0 -7 -6 -12 -13 -12 -17 0 -49
34 -41 43 4 4 -7 2 -25 -3 -17 -5 -31 -7 -31 -4 0 2 -11 -3 -25 -12 l-25 -16
0 -272 c0 -260 1 -273 20 -294 12 -12 27 -22 35 -22 11 0 15 -12 15 -45 0 -41
-7 -54 -23 -39 -3 3 -50 7 -104 8 l-98 1 -1 43 c-1 38 1 43 17 39 11 -3 17 -1
13 4 -3 5 0 9 6 9 32 0 35 26 35 281 0 220 2 256 14 251 8 -3 -2 11 -23 30
-24 23 -44 34 -54 31 -9 -4 -13 -2 -9 4 3 5 -3 9 -16 7 -12 -1 -26 -3 -30 -3
-5 -1 -6 -5 -3 -10 3 -4 -4 -17 -16 -27 -21 -19 -21 -19 -9 6 11 24 11 24 -3
6 -9 -11 -16 -26 -16 -34 0 -7 -4 -11 -9 -7 -5 3 -12 1 -16 -4 -3 -6 -12 -8
-20 -4 -11 4 -15 23 -15 79 l0 75 264 -1 264 -1 4 -24z"/>
<path d="M3850 1735 c0 -5 5 -17 10 -25 5 -8 10 -10 10 -5 0 6 -5 17 -10 25
-5 8 -10 11 -10 5z"/>
<path d="M4088 1768 l-3 -67 33 -6 32 -6 -2 -272 -3 -272 -30 0 -30 -1 -3 -72
-3 -72 276 0 275 0 0 110 0 110 -60 0 c-53 0 -60 -2 -60 -19 0 -41 -26 -51
-126 -51 l-94 0 0 90 c0 108 2 110 119 110 l79 0 4 70 3 70 -90 0 c-49 0 -96
4 -103 8 -9 6 -12 33 -10 98 l3 89 98 3 98 3 13 -32 c12 -29 18 -32 65 -35
l51 -3 0 99 c0 55 1 103 3 106 1 3 -118 6 -265 7 l-267 2 -3 -67z m502 -1 c1
-23 3 -59 6 -79 5 -36 4 -38 -21 -38 -24 0 -101 60 -90 71 2 3 -38 3 -90 1
-66 -3 -95 -1 -95 7 0 6 -8 3 -18 -6 -23 -22 -19 -31 5 -12 11 8 9 3 -4 -12
-18 -20 -22 -37 -22 -89 -1 -98 -1 -98 15 -110 7 -7 11 -16 8 -21 -3 -5 5 -9
18 -9 14 0 18 -3 11 -8 -6 -4 22 -6 64 -4 89 5 98 -3 84 -79 -1 -3 -35 -5 -76
-6 -65 0 -79 -3 -100 -23 -13 -13 -22 -27 -19 -31 3 -5 0 -9 -7 -9 -10 0 -10
-3 -1 -12 9 -9 7 -14 -6 -25 -12 -9 -13 -12 -2 -8 12 4 14 -4 12 -43 -3 -40 1
-54 20 -77 23 -26 29 -28 99 -27 92 1 101 3 117 25 7 9 18 15 23 12 5 -4 9 3
9 14 0 21 2 22 43 24 21 1 22 -3 25 -81 l3 -82 -246 0 -246 0 2 45 c3 48 7 53
28 33 10 -11 11 -10 6 4 -4 11 1 20 14 28 20 10 21 18 21 276 0 238 -2 268
-17 287 -10 12 -25 22 -33 22 -9 0 -16 11 -18 28 -7 59 -13 58 243 57 l235 -1
0 -42z"/>
<path d="M4250 1726 c7 -7 13 -7 20 0 6 6 3 10 -10 10 -13 0 -16 -4 -10 -10z"/>
<path d="M4510 1706 c0 -4 7 -14 15 -22 8 -9 15 -11 15 -6 0 5 -7 15 -15 22
-8 7 -15 9 -15 6z"/>
<path d="M4276 1127 c3 -10 9 -15 12 -12 3 3 0 11 -7 18 -10 9 -11 8 -5 -6z"/>
<path d="M2216 1647 c3 -10 9 -15 12 -12 3 3 0 11 -7 18 -10 9 -11 8 -5 -6z"/>
<path d="M1523 475 c0 -7 6 -11 14 -8 7 3 13 6 13 8 0 2 -6 5 -13 8 -8 3 -14
-1 -14 -8z"/>
<path d="M5100 470 c-9 -6 -10 -10 -3 -10 6 0 15 5 18 10 8 12 4 12 -15 0z"/>
</g>
</svg>
