<?xml version="1.0" encoding="UTF-8"?>
<svg version="1.1" xmlns="http://www.w3.org/2000/svg" width="512" height="512">
<path d="M0 0 C0.7734375 -0.04125 1.546875 -0.0825 2.34375 -0.125 C11.36094549 -0.24603618 15.9538837 5.17974325 22.1171875 11.13671875 C23.7916655 12.81513361 25.46087159 14.49882311 27.125 16.1875 C27.97835938 17.04150391 28.83171875 17.89550781 29.7109375 18.77539062 C38.1374452 27.26189719 38.1374452 27.26189719 38.5625 31.9375 C38.25 35.5 38.25 35.5 37.1875 37.875 C34.28326481 40.31081016 31.99042509 40.43550991 28.25 40.5 C24.1978729 38.51171709 21.44607776 35.85227983 18.37890625 32.578125 C17.47462891 31.63582031 16.57035156 30.69351562 15.63867188 29.72265625 C14.21745948 28.23320398 12.80245896 26.7392074 11.40014648 25.23193359 C10.03440362 23.76940206 8.64441618 22.32962958 7.25390625 20.890625 C6.43736572 20.02469727 5.6208252 19.15876953 4.77954102 18.26660156 C2.357429 16.22776039 2.357429 16.22776039 -0.7253418 16.43188477 C-4.43133823 17.74060495 -6.35307631 19.44155066 -9.1484375 22.19921875 C-9.6282608 22.67188675 -10.10808411 23.14455475 -10.60244751 23.63154602 C-11.60853883 24.62988554 -12.60833009 25.63461006 -13.60205078 26.64526367 C-15.12265166 28.18512192 -16.6703608 29.69334707 -18.22265625 31.20117188 C-19.19969078 32.17791608 -20.17501267 33.15637707 -21.1484375 34.13671875 C-22.47367432 35.46255981 -22.47367432 35.46255981 -23.82568359 36.81518555 C-26.25232641 40.20084795 -26.41543032 41.39680136 -25.75 45.5 C-23.86498481 48.27871395 -21.52069178 50.53844186 -19.12817383 52.88232422 C-18.42419464 53.59521103 -17.72021545 54.30809784 -16.99490356 55.04258728 C-14.66366315 57.39513925 -12.31127523 59.72517252 -9.95703125 62.0546875 C-8.33138023 63.68184044 -6.70669283 65.30995665 -5.08293152 66.93899536 C-1.67669966 70.3495614 1.73989531 73.74929173 5.16430664 77.14160156 C9.55704705 81.49454676 13.92478776 85.87160604 18.28528881 90.25681877 C21.63633553 93.62203426 24.99939346 96.97503097 28.36632729 100.32434464 C29.98183098 101.93399078 31.59375578 103.54723698 33.20204735 105.1640892 C35.44981971 107.41983459 37.71301465 109.65885064 39.98120117 111.89404297 C40.6458287 112.56722061 41.31045624 113.24039825 41.995224 113.93397522 C45.49096455 117.43351232 45.49096455 117.43351232 50.03785706 119.04185486 C53.42518756 118.21214288 55.39259804 116.01246307 57.734375 113.57421875 C58.23543762 113.07082474 58.73650024 112.56743073 59.25274658 112.04878235 C60.30739821 110.98440507 61.35602001 109.91402352 62.39892578 108.83813477 C63.99610557 107.19151498 65.61122491 105.56435178 67.23046875 103.93945312 C68.25370756 102.90212892 69.27588039 101.8637519 70.296875 100.82421875 C70.77912537 100.33660568 71.26137573 99.84899261 71.75823975 99.34660339 C73.96897375 97.05631323 75.22767653 95.5669704 76.25 92.5 C71.2450185 83.06624292 61.13695558 75.35537853 53.4765625 68.06933594 C51.64000824 66.31756038 49.8230032 64.54730454 48.0078125 62.7734375 C47.44434113 62.24720795 46.88086975 61.72097839 46.30032349 61.17880249 C42.55481688 57.48326025 41.32422572 54.76065011 41.25 49.5 C43.18331965 45.79447068 44.60320714 44.74876648 48.5 43.25 C52.63384773 43.52558985 53.137046 43.9126192 56.03198242 46.58032227 C56.73140961 47.2200296 57.43083679 47.85973694 58.15145874 48.51882935 C58.84397736 49.17261566 59.53649597 49.82640198 60.25 50.5 C60.85864899 51.07233368 61.46729797 51.64466736 62.09439087 52.23434448 C65.94764196 55.90729932 69.72528051 59.6587418 73.50610352 63.40600586 C74.88068037 64.763937 76.26061231 66.11646802 77.64575195 67.46362305 C79.6681237 69.43105852 81.6733869 71.4146031 83.67578125 73.40234375 C84.29141434 73.99530746 84.90704742 74.58827118 85.54133606 75.19920349 C90.4595866 80.14184982 93.67343402 85.72165429 93.6875 92.9375 C92.98062685 103.83913712 86.09464308 110.38953756 78.65161133 117.64038086 C76.93769553 119.31230926 75.24623997 121.00470923 73.55664062 122.70117188 C72.4595913 123.78772992 71.36132378 124.87305968 70.26171875 125.95703125 C69.51446785 126.70398003 69.51446785 126.70398003 68.75212097 127.46601868 C62.52213877 133.49248035 56.23596745 136.91210399 47.46875 136.78125 C40.74534254 135.92898708 35.58403572 132.53307374 31.25 127.5 C27.16871071 129.11693084 24.44397329 132.04279691 21.4375 135.125 C20.90125 135.66769531 20.365 136.21039063 19.8125 136.76953125 C16.48225203 140.16428766 13.26544492 143.61435561 10.28436279 147.32366943 C8.25 149.5 8.25 149.5 5.33209229 151.628479 C-0.18628814 155.80895372 -3.82481958 159.79486257 -4.84777832 166.82702637 C-5.38853801 173.45991592 -5.25776388 180.08675404 -5.140625 186.734375 C-5.1406814 189.183457 -5.14603373 191.63254408 -5.15643311 194.081604 C-5.16955978 200.49403374 -5.11123824 206.90385475 -5.03753662 213.3157959 C-4.97498385 219.87193636 -4.98068096 226.42798859 -4.98046875 232.984375 C-4.97007751 245.82369419 -4.88645337 258.66143282 -4.75 271.5 C-4.15166855 271.49111755 -3.5533371 271.48223511 -2.93687439 271.4730835 C3.30883195 271.38436639 9.55435832 271.32416479 15.80053711 271.28027344 C18.12938715 271.26019854 20.45818705 271.23293264 22.78686523 271.19824219 C26.14058838 271.14954409 29.49364317 271.12698935 32.84765625 271.109375 C33.88334244 271.08872986 34.91902863 271.06808472 35.98609924 271.04681396 C43.26924363 271.04456976 47.37479744 272.29917925 53.05273438 276.98901367 C58.46238992 283.23855712 61.10505057 290.76843763 64.18641853 298.34389496 C66.65441555 304.39585954 69.16375846 310.40270978 71.97793543 316.30319452 C81.86570271 337.06167617 85.31000381 354.61326647 84.8012414 377.50358391 C84.72653642 381.52906129 84.73205147 385.55463072 84.72653198 389.58068848 C84.70652717 396.30420181 84.63523262 403.02541773 84.52587891 409.74804688 C84.38618965 418.34886134 84.33183447 426.94806804 84.30389595 435.54988861 C84.27929637 443.01917562 84.21996518 450.488126 84.15312719 457.95713997 C84.13293758 460.32905488 84.11674685 462.70097477 84.10083389 465.07292175 C84.07331116 468.79688668 84.02409178 472.52000113 83.95853806 476.2434845 C83.92744821 478.24257 83.91495659 480.24191827 83.90319824 482.24121094 C83.7240046 490.6671697 82.71139903 498.20593838 77.28515625 504.9375 C76.63417969 505.453125 75.98320312 505.96875 75.3125 506.5 C74.66410156 507.03625 74.01570313 507.5725 73.34765625 508.125 C68.8885812 511.04789463 65.1360535 511.75112176 59.83741474 511.76285553 C58.53431994 511.77053782 57.23122513 511.77822011 55.88864261 511.7861352 C54.44426026 511.78457479 52.99987811 511.78281724 51.55549622 511.78088379 C50.0197543 511.78605232 48.48401507 511.79207899 46.94827956 511.79889059 C42.72608182 511.81502278 38.5039521 511.81860929 34.28172719 511.82008553 C29.72873383 511.82378801 25.17577571 511.83888339 20.62280273 511.85235596 C10.66613825 511.87951804 0.70948987 511.8915713 -9.2472055 511.90037727 C-15.46443698 511.90590287 -21.68166226 511.91437772 -27.89888954 511.92338562 C-45.1132617 511.94777032 -62.32762888 511.96836911 -79.54201794 511.9751358 C-81.19460959 511.9757945 -81.19460959 511.9757945 -82.88058694 511.97646651 C-84.5371277 511.97712134 -84.5371277 511.97712134 -86.22713393 511.9777894 C-88.46498056 511.97867633 -90.7028272 511.97956946 -92.94067383 511.98046875 C-94.05072253 511.98091161 -95.16077122 511.98135447 -96.30445776 511.98181075 C-114.29056899 511.98970651 -132.27651815 512.02461414 -150.26256677 512.07118779 C-168.72944247 512.11862046 -187.19623685 512.14353976 -205.66317445 512.14587164 C-216.03135493 512.14770485 -226.39932423 512.15920186 -236.76744652 512.19551086 C-245.59633675 512.22632059 -254.42495056 512.23654946 -263.25388434 512.22003466 C-267.7575339 512.21222408 -272.26062686 512.2140671 -276.76420784 512.24214935 C-280.89068307 512.26764454 -285.016184 512.2652199 -289.14265803 512.24096793 C-290.63191881 512.23705663 -292.12124879 512.24319928 -293.61041238 512.26065665 C-302.72613156 512.36071673 -309.66379358 511.62011321 -316.75 505.5 C-323.17331848 498.03464139 -323.68975885 490.74149397 -323.79614258 481.16088867 C-323.83219277 479.73798094 -323.87046041 478.31512795 -323.91075134 476.89233398 C-324.01032414 473.04048617 -324.0700205 469.18911337 -324.11578965 465.33628249 C-324.14473107 462.90115608 -324.17921259 460.46615914 -324.21484947 458.03112221 C-324.32385976 450.33338878 -324.40451171 442.63600142 -324.45011121 434.93763179 C-324.49754047 427.06121319 -324.60446157 419.19146826 -324.81469727 411.31762695 C-325.9859747 366.53168412 -323.67373133 331.64161837 -301.06339073 291.89382362 C-299.23341878 288.55846425 -297.61025354 285.1311705 -295.99984455 281.68524456 C-293.26312788 276.90033334 -288.76057848 273.64489896 -283.75 271.5 C-281.40875244 271.25949097 -281.40875244 271.25949097 -278.79785156 271.27294922 C-277.81713684 271.27310028 -276.83642212 271.27325134 -275.82598877 271.27340698 C-274.2492337 271.28889084 -274.2492337 271.28889084 -272.640625 271.3046875 C-271.01770538 271.30893234 -271.01770538 271.30893234 -269.36199951 271.31326294 C-265.90788696 271.32445391 -262.45403412 271.3495568 -259 271.375 C-256.65755583 271.38503119 -254.31510759 271.3941568 -251.97265625 271.40234375 C-246.23168229 271.4243897 -240.4908597 271.45785666 -234.75 271.5 C-234.80800781 270.31921875 -234.86601562 269.1384375 -234.92578125 267.921875 C-234.97268643 266.36462289 -235.01818579 264.80732799 -235.0625 263.25 C-235.10439453 262.47269531 -235.14628906 261.69539063 -235.18945312 260.89453125 C-235.31312861 255.10651875 -235.31312861 255.10651875 -232.41796875 251.98828125 C-229.12351375 250.15052524 -227.46468619 249.80349634 -223.75 250.5 C-209.32394333 264.92605667 -218.75 291.098475 -218.75 311.5 C-153.74 311.5 -88.73 311.5 -21.75 311.5 C-22.08 265.96 -22.41 220.42 -22.75 173.5 C-28.69 175.48 -28.69 175.48 -34.75 177.5 C-39.24521591 178.24920265 -43.02083693 178.63901398 -47.51464844 178.67700195 C-48.16270447 178.68357315 -48.8107605 178.69014435 -49.47845459 178.69691467 C-51.60542959 178.71648999 -53.73233452 178.72827471 -55.859375 178.73828125 C-56.5916053 178.74235678 -57.3238356 178.7464323 -58.0782547 178.75063133 C-61.95418508 178.77142498 -65.83008076 178.78575548 -69.70605469 178.79516602 C-73.68471023 178.80621671 -77.66280446 178.8406199 -81.64126205 178.88033772 C-84.72301186 178.90662441 -87.80463022 178.91486844 -90.88648224 178.91844749 C-92.35194947 178.92328236 -93.81741208 178.9348066 -95.28276825 178.95348549 C-106.87786249 179.09210539 -116.25914989 177.75141923 -124.9921875 169.56640625 C-130.01298204 163.66418334 -132.85085806 156.53059535 -133 148.8125 C-133.03867187 147.63107422 -133.03867187 147.63107422 -133.078125 146.42578125 C-132.76614778 143.64398435 -132.13283533 141.45308205 -131.22949219 138.81713867 C-130.9540155 138.00822678 -130.67853882 137.19931488 -130.39471436 136.3658905 C-130.18195862 135.75014664 -129.96920288 135.13440277 -129.75 134.5 C-140.35524062 134.58439588 -150.96033072 134.67927648 -161.56535625 134.78752708 C-166.48974988 134.8374636 -171.41412234 134.88379396 -176.33862305 134.921875 C-181.09142207 134.95876109 -185.84404278 135.00513024 -190.59668922 135.05806351 C-192.40952233 135.07658976 -194.22239364 135.09170425 -196.03528404 135.10334396 C-198.57538468 135.12023665 -201.11507856 135.14927894 -203.6550293 135.18115234 C-204.40381348 135.18331253 -205.15259766 135.18547272 -205.92407227 135.18769836 C-209.94133166 135.25205603 -213.18198983 135.58276933 -216.75 137.5 C-218.40063068 140.80126136 -217.89411163 144.47977428 -217.8918457 148.10888672 C-217.89705734 149.44567978 -217.89705734 149.44567978 -217.90237427 150.80947876 C-217.90973708 152.74872079 -217.91507966 154.68797128 -217.91866493 156.62722397 C-217.92581696 159.69500358 -217.94147357 162.762622 -217.96000671 165.83035278 C-218.01253917 174.55403445 -218.06047193 183.27762837 -218.07592773 192.00146484 C-218.08599547 197.33370565 -218.11528924 202.66554218 -218.15724754 207.99762344 C-218.16957979 210.03177969 -218.17467476 212.06599298 -218.17244911 214.10018539 C-218.17010259 216.94467229 -218.19221287 219.78799445 -218.2199707 222.63232422 C-218.21006859 223.89644135 -218.21006859 223.89644135 -218.19996643 225.18609619 C-218.25834384 228.82289537 -218.40164182 231.02994882 -220.59953308 233.99563599 C-223.41414677 235.96460538 -225.31719147 236.42994268 -228.75 236.5 C-233.31521739 234.36956522 -233.31521739 234.36956522 -234.75 231.5 C-234.86440414 228.52179168 -234.91787761 225.56644922 -234.92700195 222.58740234 C-234.93357315 221.66361786 -234.94014435 220.73983337 -234.94691467 219.78805542 C-234.96667753 216.720682 -234.9783188 213.65335768 -234.98828125 210.5859375 C-234.99235678 209.53863087 -234.9964323 208.49132423 -235.00063133 207.41228104 C-235.02150784 201.86583909 -235.03580099 196.31942198 -235.04516602 190.77294922 C-235.05621539 185.04977803 -235.090594 179.32699727 -235.13033772 173.60396385 C-235.15651893 169.19950653 -235.16485936 164.79514185 -235.16844749 160.39061356 C-235.17331193 158.28155515 -235.18492179 156.17250084 -235.20348549 154.06351852 C-235.22790157 151.1050226 -235.22690686 148.14753123 -235.2199707 145.18896484 C-235.23278076 144.32319824 -235.24559082 143.45743164 -235.25878906 142.56542969 C-235.20021609 135.68338203 -233.33103098 130.4990117 -228.8203125 125.2578125 C-228.17835938 124.71898438 -227.53640625 124.18015625 -226.875 123.625 C-226.23820312 123.07070312 -225.60140625 122.51640625 -224.9453125 121.9453125 C-219.0889762 118.08971743 -213.59544783 118.36760503 -206.8828125 118.68359375 C-185.2094812 120.48514258 -185.2094812 120.48514258 -165.46875 113.90234375 C-162.03451203 110.53479363 -159.45495574 106.81435204 -157.08984375 102.640625 C-154.85280168 99.06657528 -151.79281519 96.3811151 -148.75 93.5 C-147.64814323 92.26629713 -146.56008686 91.01977437 -145.5 89.75 C-142.56720415 86.34161563 -139.44927872 83.15600136 -136.25 80 C-133.09245478 76.88505236 -130.01214723 73.74557654 -127.125 70.375 C-117.07565433 58.72635229 -105.48904361 48.89854801 -89.75 46.5 C-74.39901697 45.62086881 -57.62508393 46.47413471 -42.75 50.5 C-42.915 50.005 -43.08 49.51 -43.25 49 C-44.59488938 42.27555312 -43.86259437 36.61840584 -40.75 30.5 C-38.8699032 27.98919649 -36.72510348 25.84123086 -34.47265625 23.6640625 C-33.86489853 23.05863617 -33.25714081 22.45320984 -32.63096619 21.82943726 C-31.35335008 20.5615048 -30.06975514 19.29957093 -28.78051758 18.04345703 C-26.80928605 16.12186699 -24.85757714 14.1820177 -22.90820312 12.23828125 C-21.65994592 11.00410315 -20.41063278 9.77099192 -19.16015625 8.5390625 C-18.57774673 7.96201569 -17.99533722 7.38496887 -17.39527893 6.79043579 C-11.51409657 1.08002259 -7.91403602 0.10345145 0 0 Z M-90.25 63.625 C-91.50296875 63.93824219 -91.50296875 63.93824219 -92.78125 64.2578125 C-101.71119875 67.99429105 -108.20657188 74.54417485 -114.875 81.375 C-115.72964844 82.23480469 -116.58429688 83.09460938 -117.46484375 83.98046875 C-121.86797116 88.43770526 -126.10453072 92.98238304 -130.19042969 97.73095703 C-133.26353299 101.21682217 -136.65939805 104.37059551 -140.00390625 107.59375 C-142.18370282 109.90067554 -144.04130413 112.14315897 -145.92163086 114.68164062 C-146.45372665 115.39791626 -146.98582245 116.11419189 -147.53404236 116.85217285 C-147.93530838 117.39595581 -148.3365744 117.93973877 -148.75 118.5 C-147.74410828 118.50586624 -146.73821655 118.51173248 -145.70184326 118.51777649 C-136.22573493 118.5749708 -126.74985681 118.6477151 -117.273983 118.73571491 C-112.40223593 118.78045685 -107.53057323 118.81970452 -102.65869141 118.84643555 C-97.95770335 118.8724304 -93.25703929 118.91280564 -88.55625153 118.96318626 C-86.76213865 118.97988085 -84.96796969 118.99137897 -83.17378998 118.99761391 C-80.66206333 119.00722692 -78.15117043 119.0352518 -75.63964844 119.06762695 C-74.89661972 119.06619186 -74.153591 119.06475677 -73.38804626 119.0632782 C-69.26321061 119.13855389 -66.67479603 119.46838397 -63.75 122.5 C-63.25390625 124.4375 -63.25390625 124.4375 -63.3125 126.5 C-63.31378906 127.180625 -63.31507813 127.86125 -63.31640625 128.5625 C-63.90875132 131.20937527 -64.52466538 131.90960765 -66.75 133.5 C-69.46256092 133.80749603 -71.95741339 133.94098709 -74.671875 133.94140625 C-75.83919159 133.96121803 -75.83919159 133.96121803 -77.03009033 133.98143005 C-79.5200959 134.02232772 -82.00973477 134.04397697 -84.5 134.0625 C-86.97586759 134.08638064 -89.45139438 134.11470717 -91.92706299 134.15428162 C-93.46629009 134.1783946 -95.00569542 134.19345083 -96.54510498 134.19789124 C-101.93673229 134.2751885 -107.18128672 134.73055367 -111.74609375 137.875 C-114.76117569 141.27411677 -116.19902845 143.9084341 -116.5 148.5 C-116.20857289 153.16283377 -114.68925457 155.75134393 -111.55078125 159.125 C-107.62636826 162.1215149 -103.83737268 162.75220086 -98.98852539 162.7746582 C-97.85286636 162.78419022 -96.71720734 162.79372223 -95.5471344 162.80354309 C-94.32630661 162.80263168 -93.10547882 162.80172028 -91.84765625 162.80078125 C-90.57836777 162.80506638 -89.30907928 162.8093515 -88.00132751 162.81376648 C-85.31218654 162.81950927 -82.62342923 162.82094794 -79.93432617 162.81567383 C-76.52890721 162.80992756 -73.12404077 162.82669571 -69.71871281 162.8500185 C-66.42836649 162.86853472 -63.13804509 162.86456482 -59.84765625 162.86328125 C-58.64504654 162.872491 -57.44243683 162.88170074 -56.2033844 162.89118958 C-38.51583478 162.79654237 -23.37487427 158.26044996 -10.75 145.5 C-9.6645321 144.26894274 -8.59058835 143.02764509 -7.52734375 141.77734375 C-3.15762737 136.74440822 1.59273756 132.13485027 6.37695312 127.5 C7.04791016 126.84 7.71886719 126.18 8.41015625 125.5 C9.00449463 124.9225 9.59883301 124.345 10.21118164 123.75 C13.13902484 120.51888961 15.67710014 117.0165532 18.25 113.5 C17.73048264 112.98048264 17.21096527 112.46096527 16.67570496 111.92570496 C-23.75 71.5 -23.75 71.5 -25.21876526 69.79345703 C-27.26573394 68.06435178 -28.79748604 67.92494276 -31.44580078 67.60864258 C-32.87341232 67.4287957 -32.87341232 67.4287957 -34.3298645 67.24531555 C-35.87201126 67.07167732 -35.87201126 67.07167732 -37.4453125 66.89453125 C-39.03833694 66.70113411 -39.03833694 66.70113411 -40.6635437 66.50382996 C-42.91396771 66.2331861 -45.16515301 65.96881022 -47.41699219 65.71020508 C-50.84231822 65.31625873 -54.26487846 64.90305302 -57.6875 64.48632812 C-59.87746791 64.22541629 -62.06756852 63.96561535 -64.2578125 63.70703125 C-65.27376495 63.58519974 -66.28971741 63.46336823 -67.3364563 63.33784485 C-74.98116845 62.46802615 -82.72051933 61.603195 -90.25 63.625 Z M-281.16625977 289.06762695 C-283.19058912 292.17667479 -284.69969208 295.3897721 -286.10546875 298.80859375 C-286.56049774 299.88151169 -286.56049774 299.88151169 -287.02471924 300.97610474 C-288.00484522 303.29281452 -288.97130229 305.61495129 -289.9375 307.9375 C-290.60658535 309.52699802 -291.27659184 311.11610861 -291.94750977 312.70483398 C-293.27447326 315.84935878 -294.59684717 318.99575254 -295.91601562 322.14355469 C-297.49786198 325.91105722 -299.10776085 329.66563059 -300.734375 333.4140625 C-301.1569458 334.38802979 -301.5795166 335.36199707 -302.01489258 336.36547852 C-302.7785699 338.12195225 -303.54394652 339.87768846 -304.3112793 341.63256836 C-306.10160356 345.42670564 -306.10160356 345.42670564 -306.75 349.5 C-305.76143494 349.50146521 -305.76143494 349.50146521 -304.75289887 349.50296003 C-265.72266637 349.5611882 -226.69249104 349.63495161 -187.66232766 349.72898628 C-182.9795566 349.74025491 -178.29678524 349.75139329 -173.61401367 349.76245117 C-172.68172879 349.76465486 -171.74944392 349.76685854 -170.78890798 349.769129 C-155.67867105 349.80453486 -140.56843417 349.82938041 -125.45817109 349.85034702 C-109.96226326 349.87208292 -94.46640942 349.90511219 -78.9705475 349.94870156 C-69.40301152 349.97525649 -59.83554287 349.99292353 -50.26797185 349.99934604 C-43.71378091 350.00458821 -37.1596748 350.02076555 -30.60552927 350.04566566 C-26.81989309 350.05972103 -23.03440889 350.06883653 -19.24874496 350.06500816 C-15.15083065 350.06098952 -11.05335065 350.07993693 -6.95549011 350.10127258 C-5.1476341 350.09400122 -5.1476341 350.09400122 -3.30325574 350.08658296 C-2.21046317 350.0960395 -1.11767061 350.10549604 0.00823689 350.11523914 C0.95487967 350.11713775 1.90152245 350.11903635 2.87685138 350.12099248 C5.6907655 350.57039316 6.55910483 351.24727105 8.25 353.5 C9.40210808 357.14834225 9.19626165 359.82009358 8.25 363.5 C5.21739208 364.51086931 3.18059018 364.62975767 0.00823689 364.6386652 C-1.63095196 364.64687687 -1.63095196 364.64687687 -3.30325574 364.65525442 C-4.50849308 364.65623253 -5.71373042 364.65721064 -6.95549011 364.65821838 C-8.23212172 364.66315636 -9.50875333 364.66809434 -10.82407075 364.67318195 C-14.3745805 364.6867819 -17.92508066 364.69418678 -21.47560966 364.70060861 C-25.30178001 364.70860441 -29.12793034 364.722305 -32.9540863 364.73532104 C-39.58549054 364.75709545 -46.21689679 364.77523641 -52.8483181 364.79092598 C-62.43629979 364.81361583 -72.02425932 364.84175988 -81.61222223 364.87124526 C-97.16717159 364.91893202 -112.72212999 364.96219327 -128.27709961 365.00268555 C-143.38941146 365.04203496 -158.50171527 365.08345985 -173.61401367 365.12768555 C-175.01074535 365.13177196 -175.01074535 365.13177196 -176.43569382 365.13594092 C-181.10691225 365.1496203 -185.77813056 365.1633406 -190.44934881 365.17708123 C-229.21621581 365.29106304 -267.98310007 365.39786863 -306.75 365.5 C-306.86681932 381.71156168 -306.95498102 397.92298676 -307.00906086 414.13486767 C-307.03483893 421.66240194 -307.06998138 429.18967464 -307.12719727 436.71704102 C-307.17704499 443.27817517 -307.20929392 449.83911988 -307.22044247 456.40043813 C-307.22695911 459.87448377 -307.24226533 463.34798748 -307.27865028 466.82185936 C-307.31894596 470.70059718 -307.31994853 474.57880561 -307.31762695 478.45776367 C-307.33560333 479.60862961 -307.35357971 480.75949554 -307.37210083 481.94523621 C-307.36522751 483.00387878 -307.35835419 484.06252136 -307.35127258 485.15324402 C-307.35588155 486.07042804 -307.36049051 486.98761206 -307.36523914 487.93258953 C-306.46728833 491.67976386 -304.76623188 493.17088182 -301.75 495.5 C-298.75799051 496.24088568 -298.75799051 496.24088568 -295.4612112 496.12641239 C-294.18576677 496.13883443 -292.91032233 496.15125647 -291.59622806 496.16405493 C-290.18308036 496.15255402 -288.76993643 496.14058181 -287.35679626 496.12818909 C-285.85389581 496.13323379 -284.35100136 496.14046203 -282.84812075 496.14968723 C-278.71676537 496.16864746 -274.58600047 496.15635488 -270.45465982 496.1389643 C-265.99992813 496.12561341 -261.54528415 496.14101912 -257.09056091 496.15278625 C-248.36347785 496.17118383 -239.63661839 496.16263663 -230.90954226 496.14469803 C-223.81871788 496.1306842 -216.72795428 496.12677661 -209.63711739 496.1301403 C-208.12451866 496.13085647 -208.12451866 496.13085647 -206.58136239 496.1315871 C-204.53296496 496.13261341 -202.48456756 496.13366876 -200.43617017 496.13475286 C-182.31571903 496.1433241 -164.19537601 496.1266307 -146.07495117 496.09692383 C-128.4814805 496.06808114 -110.88816556 496.06100436 -93.29467773 496.07641602 C-74.14676047 496.0931663 -54.99891717 496.0972247 -35.85099798 496.07970566 C-33.81035428 496.07786122 -31.76971057 496.07602649 -29.72906685 496.07420158 C-28.7249685 496.07328949 -27.72087015 496.0723774 -26.68634458 496.07143768 C-19.60135367 496.06582531 -12.5163988 496.06914594 -5.43140984 496.07574654 C3.19890975 496.08346746 11.82907588 496.0767719 20.45936448 496.0515715 C24.86492614 496.03904802 29.27024853 496.03296428 33.6758194 496.04411316 C37.70561235 496.05411876 41.73492709 496.04577527 45.7646616 496.02253198 C47.22553463 496.01735219 48.68645014 496.01897124 50.1473049 496.02792663 C52.12720272 496.03905794 54.10719781 496.02334218 56.08705235 496.00615788 C57.73932688 496.00437065 57.73932688 496.00437065 59.4249807 496.00254732 C62.91087071 495.38243662 64.07560302 494.23434813 66.25 491.5 C67.40741767 488.49070899 67.37354994 485.59053966 67.37025452 482.38739014 C67.37162918 481.35536469 67.37300385 480.32333923 67.37442017 479.26004028 C67.37082489 478.13363129 67.36722961 477.00722229 67.36352539 475.84667969 C67.36374443 474.06090012 67.36374443 474.06090012 67.3639679 472.23904419 C67.36339086 468.97903726 67.35837765 465.71907333 67.35139394 462.45907497 C67.34514008 459.050457 67.34455499 455.64183816 67.34336853 452.23321533 C67.34026121 445.78055116 67.33205589 439.32790395 67.32201904 432.87524724 C67.31083931 425.52825913 67.30534276 418.18127022 67.30032361 410.83427572 C67.28987279 395.72284104 67.27228493 380.61142221 67.25 365.5 C66.14487061 365.48541748 65.03974121 365.47083496 63.90112305 365.45581055 C59.80264861 365.39785734 55.70472533 365.32062481 51.60668945 365.23754883 C49.83269188 365.20428536 48.0585881 365.17625782 46.28442383 365.15356445 C43.73472824 365.12004398 41.18600708 365.06773135 38.63671875 365.01171875 C37.84287277 365.00532883 37.04902679 364.9989389 36.23112488 364.99235535 C30.73968627 364.84557296 30.73968627 364.84557296 28.25073242 363.08911133 C27.00050263 361.10381109 26.84843147 359.83803021 26.875 357.5 C26.86726563 356.819375 26.85953125 356.13875 26.8515625 355.4375 C27.40141954 352.7636854 28.00473058 352.09540292 30.25 350.5 C33.04140762 350.16890477 35.62216688 350.01142322 38.41796875 349.98828125 C39.21278152 349.97033005 40.0075943 349.95237885 40.82649231 349.93388367 C43.36344101 349.8797303 45.90020107 349.84586972 48.4375 349.8125 C50.15822941 349.77933126 51.8789339 349.74484201 53.59960938 349.70898438 C57.81627022 349.62400127 62.03287464 349.55721458 66.25 349.5 C65.60196508 345.60061747 64.43625965 342.22572255 62.9140625 338.58203125 C62.43187256 337.4216333 61.94968262 336.26123535 61.45288086 335.06567383 C60.9272461 333.81447908 60.40127833 332.56342419 59.875 331.3125 C59.33643888 330.02573144 58.79811171 328.73886494 58.26000977 327.4519043 C57.42913649 325.46617495 56.59740823 323.48082151 55.76338196 321.49641418 C54.11853985 317.58259464 52.48952641 313.66280548 50.87762451 309.73530579 C49.65442471 306.75820664 48.41982707 303.78583021 47.1875 300.8125 C46.7352002 299.70302002 46.28290039 298.59354004 45.81689453 297.45043945 C45.39134277 296.43167725 44.96579102 295.41291504 44.52734375 294.36328125 C44.15859131 293.46907471 43.78983887 292.57486816 43.40991211 291.65356445 C42.30425248 289.19707236 42.30425248 289.19707236 39.25 287.5 C37.17101278 287.2115117 37.17101278 287.2115117 34.87036133 287.27294922 C33.98967484 287.27310028 33.10898834 287.27325134 32.20161438 287.27340698 C31.25465195 287.28372955 30.30768951 287.29405212 29.33203125 287.3046875 C28.35965012 287.3075174 27.38726898 287.31034729 26.38542175 287.31326294 C23.27765634 287.32446401 20.17017841 287.34956852 17.0625 287.375 C14.95638437 287.38502989 12.85026422 287.39415573 10.74414062 287.40234375 C5.57922704 287.4227021 0.41493558 287.46185111 -4.75 287.5 C-4.75 295.42 -4.75 303.34 -4.75 311.5 C-1.45 312.16 1.85 312.82 5.25 313.5 C7.52139251 318.04278502 7.41188936 319.67369035 6.25 324.5 C3.16074486 326.55950343 2.52428763 326.75068738 -0.96546078 326.75726891 C-1.82936583 326.7637178 -2.69327089 326.77016669 -3.58335489 326.776811 C-4.53295212 326.7737138 -5.48254934 326.7706166 -6.46092224 326.76742554 C-7.46930069 326.77195665 -8.47767913 326.77648776 -9.5166145 326.78115618 C-12.91143154 326.79386411 -16.30608947 326.7921757 -19.70092773 326.79052734 C-22.12834887 326.79650855 -24.55576811 326.80331315 -26.98318481 326.81088257 C-32.90173061 326.8267491 -38.82023882 326.83299269 -44.73880153 326.83410732 C-49.54848457 326.83505709 -54.35815445 326.83916382 -59.16783333 326.84550858 C-72.79822243 326.86312392 -86.42858001 326.87234689 -100.05898058 326.87084763 C-100.79402138 326.87076772 -101.52906219 326.8706878 -102.28637695 326.87060547 C-103.02231306 326.87052371 -103.75824916 326.87044195 -104.51648635 326.87035771 C-116.44762216 326.86954453 -128.37863181 326.88868935 -140.30973112 326.9168822 C-152.5546688 326.94558884 -164.7995449 326.95942375 -177.0445171 326.95769465 C-183.92152645 326.95703002 -190.79840352 326.96255426 -197.67538261 326.98405075 C-204.1407497 327.00413082 -210.60590923 327.00361161 -217.07129288 326.98901749 C-219.44814142 326.98691855 -221.82500714 326.99169428 -224.2018261 327.0037384 C-227.43891586 327.01908314 -230.67502673 327.00995375 -233.91209412 326.99447632 C-235.33314387 327.00990701 -235.33314387 327.00990701 -236.7829017 327.02564943 C-243.12388592 326.95834311 -243.12388592 326.95834311 -246.34753513 324.59848976 C-247.96719131 322.17501949 -248.15750823 321.21665894 -247.6875 318.375 C-246.75 314.5 -246.75 314.5 -243.75 312.5 C-240.78 312.17 -237.81 311.84 -234.75 311.5 C-234.75 303.58 -234.75 295.66 -234.75 287.5 C-240.94377497 287.40816479 -247.13518816 287.32852767 -253.32910156 287.28027344 C-255.43595382 287.26015874 -257.54275025 287.23286333 -259.64941406 287.19824219 C-262.67787447 287.14971832 -265.70559678 287.12702984 -268.734375 287.109375 C-269.67617615 287.08872986 -270.61797729 287.06808472 -271.58831787 287.04681396 C-276.66221709 287.00293121 -276.66221709 287.00293121 -281.16625977 289.06762695 Z " fill="#000000" transform="translate(371.75,-0.5)"/>
<path d="M0 0 C1.53902048 -0.00701996 1.53902048 -0.00701996 3.10913229 -0.01418173 C6.53988749 -0.02612756 9.97024295 -0.01667584 13.40100098 -0.00723267 C15.86355319 -0.01129853 18.32610358 -0.0166405 20.78865051 -0.02316284 C26.77855554 -0.03542039 32.76830425 -0.03362896 38.75820315 -0.02492492 C43.62736029 -0.01814306 48.49648585 -0.01723382 53.36564636 -0.02049637 C54.40611563 -0.02118592 54.40611563 -0.02118592 55.46760449 -0.0218894 C56.87684064 -0.0228486 58.28607678 -0.02382124 59.69531292 -0.02480717 C72.90217817 -0.03335682 86.1089809 -0.02353362 99.31583589 -0.00740607 C110.64194436 0.00599674 121.96796058 0.00366852 133.29406738 -0.01016235 C146.45445794 -0.0262257 159.61479374 -0.03253288 172.77519274 -0.02332556 C174.1791741 -0.02236994 175.58315546 -0.02142683 176.98713684 -0.02049637 C177.67787862 -0.02003354 178.3686204 -0.01957072 179.08029374 -0.01909386 C183.9422297 -0.01650624 188.80413084 -0.02087006 193.6660614 -0.02793503 C200.21273555 -0.03723923 206.75926255 -0.03059187 213.30592918 -0.01325226 C215.70892739 -0.00928472 218.11194025 -0.01042601 220.51493263 -0.01704025 C223.79441429 -0.02523494 227.07333716 -0.01495859 230.3527832 0 C231.3042465 -0.00669217 232.25570979 -0.01338433 233.23600531 -0.02027929 C241.02469042 0.04865287 246.92277648 1.78715845 252.6763916 7.38095093 C257.30887476 15.32235062 256.89104155 22.6255253 256.9263916 31.63095093 C256.9573291 33.57807983 256.9573291 33.57807983 256.9888916 35.56454468 C257.02343483 44.03627094 256.59117349 50.69842055 251.4263916 57.69345093 C245.38986138 63.59278728 239.35294479 63.81820816 231.31481934 63.76190186 C230.28472213 63.76658183 229.25462492 63.7712618 228.19331264 63.77608359 C224.74873845 63.78802987 221.30456236 63.77857751 217.85998535 63.76913452 C215.38758106 63.77320037 212.91517858 63.77854232 210.44277954 63.7850647 C204.42881127 63.79732245 198.41499868 63.7955307 192.4010365 63.78682677 C187.51233324 63.78004501 182.62366145 63.77913564 177.73495483 63.78239822 C177.03853329 63.78285792 176.34211175 63.78331762 175.62458652 63.78379125 C174.20971337 63.78475045 172.79484023 63.78572309 171.37996709 63.78670903 C158.12016682 63.79525874 144.86042881 63.78543537 131.60063875 63.76930793 C120.22904862 63.75590511 108.85755038 63.75823332 97.48596191 63.77206421 C84.2728337 63.78812743 71.05976003 63.79443481 57.84662342 63.78522742 C56.43702508 63.78427179 55.02742673 63.78332868 53.61782837 63.78239822 C52.92432248 63.7819354 52.23081659 63.78147257 51.51629537 63.78099572 C46.63482281 63.77840805 41.75338492 63.782772 36.87191772 63.78983688 C30.29897896 63.79914092 23.72618674 63.792494 17.15325546 63.77515411 C14.7405819 63.77118649 12.32789374 63.772328 9.91522598 63.77894211 C6.62260791 63.78713647 3.33054645 63.77686083 0.03796387 63.76190186 C-1.3950675 63.7719401 -1.3950675 63.7719401 -2.85704899 63.78218114 C-9.81210604 63.72086846 -14.61147929 62.66160495 -20.0736084 58.06845093 C-24.52233408 52.75469525 -25.7800196 48.18309859 -25.7220459 41.34970093 C-25.72491608 40.59555908 -25.72778625 39.84141724 -25.73074341 39.06442261 C-25.73277535 37.47770431 -25.72730661 35.89096046 -25.71472168 34.30429077 C-25.69865436 31.88786333 -25.71459876 29.47310815 -25.73376465 27.05673218 C-25.73178206 25.50855144 -25.72793806 23.96037173 -25.7220459 22.41220093 C-25.72811859 21.69640869 -25.73419128 20.98061646 -25.740448 20.24313354 C-25.65612775 14.17171629 -23.93024886 10.2999937 -20.0736084 5.69345093 C-13.73063638 0.3595881 -7.98470665 -0.05616084 0 0 Z M-9.3236084 18.38095093 C-9.7908121 21.15823877 -9.7908121 21.15823877 -9.7220459 24.41220093 C-9.72591309 25.61489624 -9.72978027 26.81759155 -9.73376465 28.05673218 C-9.72216309 29.31872437 -9.71056152 30.58071655 -9.6986084 31.88095093 C-9.71020996 33.14294312 -9.72181152 34.4049353 -9.73376465 35.70516968 C-9.72989746 36.90786499 -9.72603027 38.1105603 -9.7220459 39.34970093 C-9.71866211 40.45765015 -9.71527832 41.56559937 -9.71179199 42.7071228 C-9.58369141 43.58948608 -9.45559082 44.47184937 -9.3236084 45.38095093 C-6.24724475 47.43186003 -5.63463239 47.63110252 -2.16782379 47.63263321 C-0.89194153 47.64045645 -0.89194153 47.64045645 0.40971613 47.64843774 C1.34443168 47.64397629 2.27914723 47.63951485 3.2421875 47.63491821 C4.2349373 47.63803819 5.2276871 47.64115818 6.25052023 47.6443727 C9.59240672 47.65237937 12.93411298 47.64601863 16.27600098 47.63973999 C18.66563524 47.64244866 21.05526867 47.6460089 23.44490051 47.65036011 C29.2708792 47.65855078 35.09680015 47.65732748 40.92278063 47.65153483 C45.65666987 47.64702243 50.39054466 47.6464036 55.12443542 47.64858246 C55.79757557 47.64888892 56.47071571 47.64919539 57.16425404 47.64951114 C58.53162325 47.65015058 59.89899245 47.650799 61.26636165 47.65145633 C74.09537559 47.65716267 86.92436097 47.65059696 99.75337023 47.63985559 C110.76695025 47.6309198 121.78048812 47.63247176 132.79406738 47.64169312 C145.57642833 47.65239037 158.35876422 47.65661332 171.14112902 47.65046859 C172.50353527 47.64983147 173.86594152 47.64920273 175.22834778 47.64858246 C175.89871947 47.64827391 176.56909117 47.64796536 177.25977716 47.64764746 C181.98928686 47.64591888 186.71878071 47.64883911 191.44828796 47.65354156 C197.8110208 47.65930379 204.17367376 47.65533875 210.53639793 47.64375305 C212.87657221 47.64110044 215.21675317 47.64188173 217.55692482 47.64627838 C220.74157366 47.65171157 223.92596354 47.64492677 227.1105957 47.63491821 C228.04531126 47.63937966 228.98002681 47.6438411 229.94306707 47.64843774 C230.79365525 47.64322224 231.64424342 47.63800675 232.52060699 47.63263321 C233.25601794 47.6323085 233.99142888 47.6319838 234.749125 47.63164926 C237.00278093 47.48311276 237.00278093 47.48311276 239.6763916 45.38095093 C240.1435953 42.60366308 240.1435953 42.60366308 240.0748291 39.34970093 C240.07869629 38.14700562 240.08256348 36.9443103 240.08654785 35.70516968 C240.07494629 34.44317749 240.06334473 33.1811853 240.0513916 31.88095093 C240.06879395 29.98796265 240.06879395 29.98796265 240.08654785 28.05673218 C240.08268066 26.85403687 240.07881348 25.65134155 240.0748291 24.41220093 C240.06975342 22.7502771 240.06975342 22.7502771 240.0645752 21.05477905 C239.93647461 20.17241577 239.80837402 19.29005249 239.6763916 18.38095093 C236.60002795 16.33004183 235.9874156 16.13079934 232.52060699 16.12926865 C231.24472473 16.1214454 231.24472473 16.1214454 229.94306707 16.11346412 C228.54099375 16.12015628 228.54099375 16.12015628 227.1105957 16.12698364 C226.1178459 16.12386366 225.1250961 16.12074368 224.10226297 16.11752915 C220.76037648 16.10952248 217.41867022 16.11588322 214.07678223 16.12216187 C211.68714796 16.11945319 209.29751453 16.11589296 206.90788269 16.11154175 C201.08190401 16.10335107 195.25598305 16.10457438 189.43000257 16.11036703 C184.69611333 16.11487942 179.96223855 16.11549826 175.22834778 16.1133194 C174.55520764 16.11301293 173.88206749 16.11270646 173.18852916 16.11239071 C171.82115995 16.11175128 170.45379075 16.11110285 169.08642155 16.11044553 C156.25740761 16.10473918 143.42842223 16.1113049 130.59941298 16.12204626 C119.58583295 16.13098205 108.57229508 16.1294301 97.55871582 16.12020874 C84.77635488 16.10951148 71.99401898 16.10528853 59.21165419 16.11143327 C57.84924794 16.11207038 56.48684168 16.11269912 55.12443542 16.1133194 C54.45406373 16.11362795 53.78369203 16.1139365 53.09300604 16.1142544 C48.36349634 16.11598298 43.63400249 16.11306274 38.90449524 16.10836029 C32.5417624 16.10259807 26.17910945 16.10656311 19.81638527 16.1181488 C17.47621099 16.12080142 15.13603003 16.12002012 12.79585838 16.11562347 C9.61120954 16.11019029 6.42681967 16.11697509 3.2421875 16.12698364 C2.30747195 16.1225222 1.3727564 16.11806076 0.40971613 16.11346412 C-0.44087204 16.11867961 -1.29146022 16.12389511 -2.16782379 16.12926865 C-2.90323473 16.12959335 -3.63864568 16.12991806 -4.3963418 16.1302526 C-6.64999773 16.27878909 -6.64999773 16.27878909 -9.3236084 18.38095093 Z " fill="#000000" transform="translate(136.3236083984375,395.6190490722656)"/>
<path d="M0 0 C2.875 1.5 2.875 1.5 5 4 C5.67556834 7.3778417 5.89470821 8.81799213 5 12 C-3.40925214 24.46706146 -16.73296573 35.1151866 -27.29614258 45.75610352 C-30.06472675 48.54707296 -32.82318964 51.34750408 -35.57348633 54.15649414 C-38.91179119 57.56585503 -42.26695142 60.95773383 -45.63481331 64.33789253 C-46.90983989 65.62330526 -48.17885562 66.91471031 -49.44155693 68.21223259 C-51.20724287 70.0241248 -52.99379202 71.81267491 -54.78686523 73.59741211 C-55.29879929 74.13294205 -55.81073334 74.66847198 -56.33818054 75.2202301 C-60.46540926 79.25560705 -63.43175856 79.84984824 -69 80 C-71.07641602 79.0168457 -71.07641602 79.0168457 -72.69140625 77.36328125 C-73.35027832 76.71439941 -74.00915039 76.06551758 -74.68798828 75.39697266 C-75.45095215 74.60597168 -76.21391602 73.8149707 -77 73 C-77.98261154 72.03268696 -78.96834192 71.06853572 -79.95654297 70.10693359 C-82.73656823 67.39336227 -85.48791646 64.65276074 -88.22973633 61.90063477 C-89.95474713 60.17019863 -91.68512428 58.4452551 -93.41601562 56.72070312 C-94.51594633 55.62011271 -95.61556738 54.51921272 -96.71484375 53.41796875 C-97.48972389 52.64612495 -97.48972389 52.64612495 -98.28025818 51.85868835 C-102.8294256 47.27930802 -102.8294256 47.27930802 -103.375 43.1875 C-103 40 -103 40 -100.9375 37.125 C-97.20884417 34.42767451 -95.53054575 34.43364428 -91 35 C-88.67969376 36.70522384 -86.99362625 38.18034427 -85.06640625 40.25 C-84.5436058 40.78270508 -84.02080536 41.31541016 -83.48216248 41.86425781 C-81.82504648 43.56038943 -80.19399355 45.27924468 -78.5625 47 C-77.43978937 48.15784087 -76.31545582 49.31411041 -75.18945312 50.46875 C-72.44050817 53.29464875 -69.71467497 56.1411802 -67 59 C-60.85301405 53.96162108 -55.28253915 48.40028279 -49.69083214 42.76599693 C-47.98248701 41.04476653 -46.27093059 39.32678654 -44.55854797 37.60957336 C-40.93202968 33.97170008 -37.30949086 30.32988022 -33.6875 26.6875 C-29.47103322 22.44742245 -25.25294587 18.20898326 -21.03064919 13.97471046 C-19.34346789 12.2810419 -17.65932086 10.58439498 -15.9752655 8.88761902 C-14.94679225 7.85551537 -13.91817954 6.82355067 -12.8894043 5.79174805 C-11.99118454 4.88829147 -11.09296478 3.9848349 -10.16752625 3.05400085 C-6.77504124 -0.16080087 -4.63863537 -0.45476817 0 0 Z " fill="#000000" transform="translate(302,201)"/>
</svg>
