<svg width="13" height="15" viewBox="0 0 13 15" fill="none" xmlns="http://www.w3.org/2000/svg">
<path d="M3.35712 5.92871V3.57157C3.35712 2.73803 3.68824 1.93863 4.27764 1.34923C4.86704 0.759832 5.66644 0.428711 6.49997 0.428711C7.33351 0.428711 8.13291 0.759832 8.72231 1.34923C9.31171 1.93863 9.64283 2.73803 9.64283 3.57157V5.92871" stroke="#848484" stroke-width="0.6" stroke-linecap="round"/>
<path d="M1 5.92871H12V13.0001C12 13.4169 11.8344 13.8166 11.5397 14.1113C11.245 14.406 10.8453 14.5716 10.4286 14.5716H2.57143C2.15466 14.5716 1.75496 14.406 1.46026 14.1113C1.16556 13.8166 1 13.4169 1 13.0001V5.92871Z" stroke="#848484" stroke-width="0.6" stroke-linejoin="round"/>
<path d="M8.46405 10.2502H8.47289V10.2591H8.46405V10.2502Z" stroke="#848484" stroke-width="0.6" stroke-linejoin="round"/>
</svg>
