<svg width="15" height="15" viewBox="0 0 15 15" fill="none" xmlns="http://www.w3.org/2000/svg">
<path d="M14.915 13.6481C13.8177 11.807 12.1268 10.4867 10.1534 9.86089C11.1295 9.29691 11.8879 8.43752 12.3121 7.41471C12.7363 6.39191 12.8028 5.26223 12.5015 4.19918C12.2001 3.13612 11.5476 2.19846 10.6441 1.53019C9.74053 0.861924 8.63597 0.5 7.5 0.5C6.36403 0.5 5.25947 0.861924 4.35594 1.53019C3.45241 2.19846 2.79987 3.13612 2.49853 4.19918C2.1972 5.26223 2.26373 6.39191 2.6879 7.41471C3.11208 8.43752 3.87045 9.29691 4.84655 9.86089C2.87321 10.486 1.1823 11.8063 0.0850403 13.6481C0.0448019 13.7118 0.0181121 13.7827 0.0065455 13.8565C-0.00502106 13.9304 -0.00123002 14.0057 0.0176949 14.0781C0.0366199 14.1505 0.0702954 14.2185 0.116735 14.2781C0.163174 14.3377 0.221436 14.3876 0.288083 14.425C0.354731 14.4624 0.428414 14.4864 0.504785 14.4957C0.581156 14.5049 0.658668 14.4993 0.732748 14.479C0.806828 14.4587 0.875975 14.4243 0.936109 14.3777C0.996243 14.331 1.04615 14.2732 1.08288 14.2075C2.44022 11.9307 4.83935 10.5713 7.5 10.5713C10.1607 10.5713 12.5598 11.9307 13.9171 14.2075C13.9539 14.2732 14.0038 14.331 14.0639 14.3777C14.124 14.4243 14.1932 14.4587 14.2673 14.479C14.3413 14.4993 14.4188 14.5049 14.4952 14.4957C14.5716 14.4864 14.6453 14.4624 14.7119 14.425C14.7786 14.3876 14.8368 14.3377 14.8833 14.2781C14.9297 14.2185 14.9634 14.1505 14.9823 14.0781C15.0012 14.0057 15.005 13.9304 14.9935 13.8565C14.9819 13.7827 14.9552 13.7118 14.915 13.6481ZM3.46543 5.53663C3.46543 4.76214 3.70205 4.00504 4.14538 3.36107C4.5887 2.71711 5.21882 2.21519 5.95604 1.91881C6.69326 1.62242 7.50448 1.54488 8.28711 1.69597C9.06973 1.84707 9.78862 2.22002 10.3529 2.76767C10.9171 3.31532 11.3014 4.01306 11.457 4.77267C11.6127 5.53228 11.5328 6.31964 11.2275 7.03517C10.9221 7.75071 10.405 8.36229 9.74149 8.79257C9.078 9.22286 8.29796 9.45252 7.5 9.45252C6.43032 9.45141 5.40477 9.03849 4.64839 8.30436C3.89201 7.57022 3.46658 6.57485 3.46543 5.53663Z" fill="#848484"/>
</svg>
